<?xml version="1.0" encoding="UTF-8" standalone="no"?>
<svg
   xmlns:dc="http://purl.org/dc/elements/1.1/"
   xmlns:cc="http://creativecommons.org/ns#"
   xmlns:rdf="http://www.w3.org/1999/02/22-rdf-syntax-ns#"
   xmlns:svg="http://www.w3.org/2000/svg"
   xmlns="http://www.w3.org/2000/svg"
   xmlns:sodipodi="http://sodipodi.sourceforge.net/DTD/sodipodi-0.dtd"
   xmlns:inkscape="http://www.inkscape.org/namespaces/inkscape"
   sodipodi:docname="favicon.svg"
   inkscape:version="1.0.2-2 (e86c870879, 2021-01-15)"
   id="svg8"
   version="1.1"
   viewBox="0 0 32 32"
   height="32"
   width="32">
  <title
     id="title907">logotipo emex control de plagas</title>
  <defs
     id="defs2">
    <clipPath
       clipPathUnits="userSpaceOnUse"
       id="clipPath849">
      <path
         d="M 0,1715.657 H 1343.731 V 0 H 0 Z"
         id="path847"
         inkscape:connector-curvature="0" />
    </clipPath>
  </defs>
  <sodipodi:namedview
     inkscape:window-maximized="1"
     inkscape:window-y="-8"
     inkscape:window-x="-8"
     inkscape:window-height="705"
     inkscape:window-width="1366"
     showgrid="false"
     inkscape:document-rotation="0"
     inkscape:current-layer="g845"
     inkscape:document-units="px"
     inkscape:cy="15.329929"
     inkscape:cx="14.830261"
     inkscape:zoom="11.2"
     inkscape:pageshadow="2"
     inkscape:pageopacity="0.0"
     borderopacity="1.0"
     bordercolor="#666666"
     pagecolor="#ffffff"
     id="base"
     showborder="true"
     inkscape:showpageshadow="false"
     units="px"
     fit-margin-top="0"
     fit-margin-left="0"
     fit-margin-right="0"
     fit-margin-bottom="0" />
  <metadata
     id="metadata5">
    <rdf:RDF>
      <cc:Work
         rdf:about="">
        <dc:format>image/svg+xml</dc:format>
        <dc:type
           rdf:resource="http://purl.org/dc/dcmitype/StillImage" />
        <dc:title>logotipo emex control de plagas</dc:title>
        <dc:date>2020-05-17</dc:date>
        <dc:creator>
          <cc:Agent>
            <dc:title>Daniel Vega Caro</dc:title>
          </cc:Agent>
        </dc:creator>
        <cc:license
           rdf:resource="http://creativecommons.org/licenses/by-nc-nd/4.0/" />
        <dc:rights>
          <cc:Agent>
            <dc:title>Atribución CC NoComercial-NoDerivs</dc:title>
          </cc:Agent>
        </dc:rights>
        <dc:publisher>
          <cc:Agent>
            <dc:title>Cianware</dc:title>
          </cc:Agent>
        </dc:publisher>
        <dc:source>https://cianware.com</dc:source>
        <dc:language>Español-Inglés</dc:language>
        <dc:subject>
          <rdf:Bag>
            <rdf:li>logotipo-emex-control-de-plagas</rdf:li>
          </rdf:Bag>
        </dc:subject>
      </cc:Work>
      <cc:License
         rdf:about="http://creativecommons.org/licenses/by-nc-nd/4.0/">
        <cc:permits
           rdf:resource="http://creativecommons.org/ns#Reproduction" />
        <cc:permits
           rdf:resource="http://creativecommons.org/ns#Distribution" />
        <cc:requires
           rdf:resource="http://creativecommons.org/ns#Notice" />
        <cc:requires
           rdf:resource="http://creativecommons.org/ns#Attribution" />
        <cc:prohibits
           rdf:resource="http://creativecommons.org/ns#CommercialUse" />
      </cc:License>
    </rdf:RDF>
  </metadata>
  <g
     id="layer1"
     inkscape:groupmode="layer"
     inkscape:label="Capa 1"
     transform="translate(-1.3605413,-1.3546922)">
    <g
       id="g845"
       clip-path="url(#clipPath849)"
       transform="matrix(0.17916812,0,0,-0.17916812,-18.787282,292.11252)">
      <g
         id="g851"
         transform="matrix(0.15416271,0,0,0.15416271,201.87123,1595.4268)">
        <path
           d="m 0,0 c -97.991,0 -207.631,-39.388 -259.596,-99.693 -16.133,-12.451 -31.345,-26.032 -45.524,-40.626 0,0 -25.265,25.78 -66.708,24.45 8.097,56.425 27.91,75.514 43.377,96.054 13.576,18.031 3.626,38.904 -17.883,39.871 -15.857,15.315 -36.237,36.969 -71.527,71.768 -18.403,18.148 -35.702,-1.269 -35.702,-1.269 0,0 -16.92,13.938 -21.296,16.312 -12.867,6.977 -19.754,-10.602 -8.336,-15.043 5.853,-2.275 25.644,-9.061 25.644,-9.061 0,0 -6.22,-17.882 12.143,-27.668 20.722,-11.043 66.694,-30.447 85.179,-39.57 -71.162,-128.132 12.556,-207.059 12.556,-207.059 -41.205,-58.281 -68.155,-127.359 -75.769,-202.153 0,0 -66.187,-30.095 -91.378,-41.876 -10.574,-4.944 -14.499,-18.304 -11.296,-28.634 -7.281,-4.713 -21.477,-13.467 -30.025,-19.574 -3.806,-2.718 -5.525,-7.711 -4.214,-12.641 -3.398,-1.676 -9.682,-4.58 -14.046,-7.113 -14.045,-8.155 1.496,-25.01 10.739,-13.23 3.278,4.178 7.612,10.301 9.605,13.049 4.913,-2.146 9.741,-0.952 13.592,2.9 6.434,6.433 18.849,19.663 23.773,24.768 9.303,-5.558 20.7,-4.98 29.963,3.504 17.217,15.767 61.602,56.545 61.602,56.545 -0.348,-7.085 -0.527,-14.215 -0.527,-21.386 0,-91.843 29.043,-176.903 78.446,-246.498 0,0 -31.747,-59.423 -40.568,-104.731 -2.337,-12.002 7.612,-21.385 7.612,-21.385 l -59.322,-25.854 c 0,0 -19.089,-7.25 -13.171,-29.485 -6.163,-3.743 -28.876,-18.848 -28.876,-18.848 0,0 -6.012,-4.378 -3.865,-12.443 -2.328,-0.996 -10.115,-4.913 -14.108,-7.158 -14.498,-8.155 1.861,-24.88 10.783,-13.23 3.262,4.259 6.525,9.333 9.487,13.139 8.003,-3.262 12.805,2.052 12.805,2.052 0,0 18.485,19.212 23.319,24.165 19.936,-11.718 32.382,6.286 32.382,6.286 l 47.664,55.999 c 0,0 19.465,2.119 20.842,21.083 3.624,50.02 13.938,85.709 13.938,85.709 78.193,-94.738 195.855,-155.123 328.286,-155.123 132.429,0 250.089,60.385 328.284,155.123 0,0 10.313,-35.689 13.936,-85.709 1.376,-18.964 20.844,-21.083 20.844,-21.083 l 47.663,-55.999 c 0,0 12.45,-18.004 32.385,-6.286 4.831,-4.953 23.317,-24.165 23.317,-24.165 0,0 4.802,-5.314 12.804,-2.052 2.964,-3.806 6.226,-8.88 9.487,-13.139 8.928,-11.65 25.282,5.075 10.783,13.23 -3.993,2.245 -11.779,6.162 -14.106,7.158 2.145,8.065 -3.864,12.443 -3.864,12.443 0,0 -22.715,15.105 -28.879,18.848 5.919,22.235 -13.169,29.485 -13.169,29.485 l -59.323,25.854 c 0,0 9.947,9.383 7.612,21.385 -8.818,45.308 -40.569,104.731 -40.569,104.731 49.404,69.595 78.446,154.655 78.446,246.498 0,7.171 -0.175,14.301 -0.528,21.386 0,0 44.387,-40.778 61.604,-56.545 9.265,-8.484 20.659,-9.062 29.965,-3.504 4.922,-5.105 17.337,-18.335 23.77,-24.768 3.85,-3.852 8.679,-5.046 13.592,-2.9 1.994,-2.748 6.327,-8.871 9.606,-13.049 9.241,-11.78 24.783,5.075 10.738,13.23 -4.364,2.533 -10.647,5.437 -14.046,7.113 1.312,4.93 -0.408,9.923 -4.212,12.641 -8.55,6.107 -22.747,14.861 -30.024,19.574 3.201,10.33 -0.724,23.69 -11.298,28.634 -25.192,11.781 -91.379,41.876 -91.379,41.876 -7.614,74.794 -34.563,143.872 -75.771,202.153 0,0 83.721,78.927 12.559,207.059 18.484,9.123 64.455,28.527 85.178,39.57 18.367,9.786 12.144,27.668 12.144,27.668 0,0 19.793,6.786 25.644,9.061 11.417,4.441 4.531,22.02 -8.337,15.043 -4.377,-2.374 -21.296,-16.312 -21.296,-16.312 0,0 -17.298,19.417 -35.703,1.269 -35.289,-34.799 -55.667,-56.453 -71.525,-71.768 -21.51,-0.967 -31.461,-21.84 -17.886,-39.871 15.468,-20.54 35.283,-39.629 43.38,-96.054 -41.443,1.33 -66.706,-24.45 -66.706,-24.45 -14.183,14.594 -29.396,28.175 -45.525,40.626 C 207.628,-39.388 97.99,0 0,0"
           style="fill:#231f20;fill-opacity:1;fill-rule:nonzero;stroke:none"
           id="path853"
           inkscape:connector-curvature="0" />
      </g>
      <g
         id="g855"
         transform="matrix(0.15416271,0,0,0.15416271,201.76764,1570.9332)">
        <path
           d="m 0,0 c 94.439,0 214.632,9.062 248.696,30.849 90.24,-72.836 147.958,-184.349 147.958,-309.343 0,-219.434 -177.22,-397.324 -396.654,-397.324 -219.433,0 -396.656,177.89 -396.656,397.324 0,124.994 57.72,236.507 147.958,309.343 C -214.636,9.062 -94.438,0 0,0"
           style="fill:#ffffff;fill-opacity:1;fill-rule:nonzero;stroke:none"
           id="path857"
           inkscape:connector-curvature="0" />
      </g>
      <g
         id="g859"
         transform="matrix(0.15416271,0,0,0.15416271,199.63297,1469.3768)">
        <path
           d="m 0,0 -0.031,461.324 c 0,0 -87.776,6.224 -87.776,66.332 0,60.23 87.765,66.392 87.765,66.392 l -0.003,40.234 C -95.374,632.953 -194.508,647.27 -233.139,660.895 -312.377,591.788 -362.448,490.086 -362.448,376.69 -362.448,173.359 -201.463,7.628 0,0"
           style="fill:#bf1b2c;fill-opacity:1;fill-rule:nonzero;stroke:none"
           id="path861"
           inkscape:connector-curvature="0" />
      </g>
      <g
         id="g863"
         transform="matrix(0.15416271,0,0,0.15416271,203.90195,1469.3768)">
        <path
           d="m 0,0 0.034,461.324 c 0,0 87.774,6.224 87.774,66.332 0,60.23 -87.766,66.392 -87.766,66.392 l 0.003,40.234 C 95.374,632.953 194.508,647.27 233.139,660.895 312.379,591.788 362.45,490.086 362.45,376.69 362.45,173.359 201.464,7.628 0,0"
           style="fill:#bf1b2c;fill-opacity:1;fill-rule:nonzero;stroke:none"
           id="path865"
           inkscape:connector-curvature="0" />
      </g>
      <g
         id="g867"
         transform="matrix(0.15416271,0,0,0.15416271,191.32052,1601.2363)">
        <path
           d="m 0,0 c -7.227,30.278 -35.496,78.06 -142.4,73.804 -11.359,-0.452 -16.946,-12.596 -15.827,-19.906 0.926,-6.043 7.869,-17.867 21.748,-14.619 88.764,20.775 120.488,-14.415 131.997,-40.052 z"
           style="fill:#231f20;fill-opacity:1;fill-rule:nonzero;stroke:none"
           id="path869"
           inkscape:connector-curvature="0" />
      </g>
      <g
         id="g871"
         transform="matrix(0.15416271,0,0,0.15416271,182.76292,1492.3979)">
        <path
           d="m 0,0 c -33.209,-24.848 -88.589,-6.952 -123.698,39.97 -35.11,46.923 -36.654,105.103 -3.446,129.95 33.208,24.852 88.589,6.952 123.698,-39.966 C 31.665,83.031 33.207,24.852 0,0"
           style="fill:#ffffff;fill-opacity:1;fill-rule:nonzero;stroke:none"
           id="path873"
           inkscape:connector-curvature="0" />
      </g>
      <g
         id="g875"
         transform="matrix(0.15416271,0,0,0.15416271,215.85874,1550.7218)">
        <path
           d="m 0,0 c 0,-30.572 -40.625,-55.353 -90.736,-55.353 -50.11,0 -90.732,24.781 -90.732,55.353 0,30.572 40.622,55.352 90.732,55.352 C -40.625,55.352 0,30.572 0,0"
           style="fill:#231f20;fill-opacity:1;fill-rule:nonzero;stroke:none"
           id="path877"
           inkscape:connector-curvature="0" />
      </g>
      <g
         id="g879"
         transform="matrix(0.15416271,0,0,0.15416271,181.67929,1493.846)">
        <path
           d="m 0,0 c -27.941,-20.908 -75.905,-4.022 -107.134,37.712 -31.229,41.734 -33.896,92.515 -5.952,113.422 27.941,20.909 75.908,4.022 107.134,-37.709 C 25.277,71.689 27.944,20.909 0,0"
           style="fill:#231f20;fill-opacity:1;fill-rule:nonzero;stroke:none"
           id="path881"
           inkscape:connector-curvature="0" />
      </g>
      <g
         id="g883"
         transform="matrix(0.15416271,0,0,0.15416271,162.35874,1555.5072)">
        <path
           d="m 0,0 c 26.174,-8.508 36.743,-48.125 23.618,-88.486 -13.126,-40.355 -44.981,-66.178 -71.151,-57.663 -26.171,8.51 -36.739,48.125 -23.617,88.484 C -58.025,-17.305 -26.17,8.514 0,0"
           style="fill:#ffffff;fill-opacity:1;fill-rule:nonzero;stroke:none"
           id="path885"
           inkscape:connector-curvature="0" />
      </g>
      <g
         id="g887"
         transform="matrix(0.15416271,0,0,0.15416271,161.81094,1553.8228)">
        <path
           d="m 0,0 c 19.794,-6.434 26.786,-39.478 15.623,-73.804 -11.163,-34.321 -36.255,-56.931 -56.049,-50.492 -19.791,6.435 -26.782,39.478 -15.623,73.802 C -44.886,-16.168 -19.794,6.438 0,0"
           style="fill:#231f20;fill-opacity:1;fill-rule:nonzero;stroke:none"
           id="path889"
           inkscape:connector-curvature="0" />
      </g>
      <g
         id="g891"
         transform="matrix(0.15416271,0,0,0.15416271,193.78179,1590.5383)">
        <path
           d="m 0,0 c 3.809,-9.454 -28.482,-31.362 -72.117,-48.936 -43.637,-17.573 -82.097,-24.158 -85.903,-14.706 -3.806,9.454 28.482,31.365 72.119,48.937 C -42.267,2.87 -3.806,9.452 0,0"
           style="fill:#ffffff;fill-opacity:1;fill-rule:nonzero;stroke:none"
           id="path893"
           inkscape:connector-curvature="0" />
      </g>
      <g
         id="g895"
         transform="matrix(0.15416271,0,0,0.15416271,220.77206,1492.3979)">
        <path
           d="m 0,0 c 33.207,-24.848 88.588,-6.952 123.697,39.97 35.111,46.923 36.655,105.103 3.449,129.95 C 93.935,194.772 38.554,176.872 3.45,129.954 -31.664,83.031 -33.208,24.852 0,0"
           style="fill:#ffffff;fill-opacity:1;fill-rule:nonzero;stroke:none"
           id="path897"
           inkscape:connector-curvature="0" />
      </g>
      <g
         id="g899"
         transform="matrix(0.15416271,0,0,0.15416271,221.85557,1493.846)">
        <path
           d="m 0,0 c 27.944,-20.908 75.908,-4.022 107.135,37.712 31.228,41.734 33.895,92.515 5.954,113.422 C 85.146,172.043 37.181,155.156 5.952,113.425 -25.276,71.689 -27.944,20.909 0,0"
           style="fill:#231f20;fill-opacity:1;fill-rule:nonzero;stroke:none"
           id="path901"
           inkscape:connector-curvature="0" />
      </g>
      <g
         id="g903"
         transform="matrix(0.15416271,0,0,0.15416271,241.17604,1555.5072)">
        <path
           d="m 0,0 c -26.174,-8.508 -36.742,-48.125 -23.614,-88.486 13.123,-40.355 44.977,-66.178 71.147,-57.663 26.172,8.51 36.743,48.125 23.621,88.484 C 58.025,-17.305 26.174,8.514 0,0"
           style="fill:#ffffff;fill-opacity:1;fill-rule:nonzero;stroke:none"
           id="path905"
           inkscape:connector-curvature="0" />
      </g>
      <g
         id="g907"
         transform="matrix(0.15416271,0,0,0.15416271,241.7239,1553.8228)">
        <path
           d="m 0,0 c -19.794,-6.434 -26.784,-39.478 -15.619,-73.804 11.163,-34.321 36.251,-56.931 56.046,-50.492 19.794,6.435 26.782,39.478 15.624,73.802 C 44.89,-16.168 19.794,6.438 0,0"
           style="fill:#231f20;fill-opacity:1;fill-rule:nonzero;stroke:none"
           id="path909"
           inkscape:connector-curvature="0" />
      </g>
      <g
         id="g911"
         transform="matrix(0.15416271,0,0,0.15416271,209.75305,1590.5383)">
        <path
           d="m 0,0 c -3.809,-9.454 28.482,-31.362 72.117,-48.936 43.636,-17.573 82.099,-24.158 85.904,-14.706 3.805,9.454 -28.484,31.365 -72.12,48.937 C 42.268,2.87 3.806,9.452 0,0"
           style="fill:#ffffff;fill-opacity:1;fill-rule:nonzero;stroke:none"
           id="path913"
           inkscape:connector-curvature="0" />
      </g>
      <g
         id="g915"
         transform="matrix(0.15416271,0,0,0.15416271,212.21442,1601.2363)">
        <path
           d="M 0,0 C 7.229,30.278 35.497,78.06 142.4,73.804 153.759,73.352 159.345,61.208 158.227,53.898 157.302,47.855 150.358,36.031 136.482,39.279 47.718,60.054 15.99,24.864 4.483,-0.773 Z"
           style="fill:#231f20;fill-opacity:1;fill-rule:nonzero;stroke:none"
           id="path917"
           inkscape:connector-curvature="0" />
      </g>
    </g>
  </g>
</svg>
