<?xml version="1.0" encoding="UTF-8" standalone="no"?>
<svg
   xmlns:dc="http://purl.org/dc/elements/1.1/"
   xmlns:cc="http://creativecommons.org/ns#"
   xmlns:rdf="http://www.w3.org/1999/02/22-rdf-syntax-ns#"
   xmlns:svg="http://www.w3.org/2000/svg"
   xmlns="http://www.w3.org/2000/svg"
   xmlns:sodipodi="http://sodipodi.sourceforge.net/DTD/sodipodi-0.dtd"
   xmlns:inkscape="http://www.inkscape.org/namespaces/inkscape"
   height="512"
   viewBox="0 0 512 512"
   width="512"
   version="1.1"
   id="svg45"
   sodipodi:docname="chinese.svg"
   inkscape:version="1.0.2-2 (e86c870879, 2021-01-15)">
  <metadata
     id="metadata51">
    <rdf:RDF>
      <cc:Work
         rdf:about="">
        <dc:format>image/svg+xml</dc:format>
        <dc:type
           rdf:resource="http://purl.org/dc/dcmitype/StillImage" />
      </cc:Work>
    </rdf:RDF>
  </metadata>
  <defs
     id="defs49" />
  <sodipodi:namedview
     pagecolor="#ffffff"
     bordercolor="#666666"
     borderopacity="1"
     objecttolerance="10"
     gridtolerance="10"
     guidetolerance="10"
     inkscape:pageopacity="0"
     inkscape:pageshadow="2"
     inkscape:window-width="1366"
     inkscape:window-height="705"
     id="namedview47"
     showgrid="false"
     showguides="true"
     inkscape:guide-bbox="true"
     inkscape:zoom="2.1015625"
     inkscape:cx="233.30598"
     inkscape:cy="237.54789"
     inkscape:window-x="-8"
     inkscape:window-y="-8"
     inkscape:window-maximized="1"
     inkscape:current-layer="svg45">
    <sodipodi:guide
       position="256,280"
       orientation="1,0"
       id="guide888" />
  </sodipodi:namedview>
  <g
     id="flat">
    <path
       d="m296 344 126.786 73.4a60 60 0 0 1 29.334 43.44l3.88 27.16h-400l3.88-27.158a60 60 0 0 1 29.334-43.442l126.786-73.4z"
       fill="#d32b39"
       id="path2" />
    <path
       d="m248 488v-96a8 8 0 0 1 16 0v96z"
       fill="#bf2734"
       id="path4" />
    <circle
       cx="192"
       cy="255.964"
       fill="#533222"
       r="72"
       id="circle6" />
    <path
       d="m215.496 296v48l-8 24 48.504 24 47.496-24-8-24v-48z"
       fill="#fdc9a6"
       id="path8" />
    <path
       d="m295.5 296v24.92a59.737 59.737 0 0 1 -39.69 15.06h-.06a59.742 59.742 0 0 1 -40.25-15.62v-24.36z"
       fill="#e6af89"
       id="path10" />
    <path
       d="m352 184v-57.874a46.93 46.93 0 0 0 -1.573-12.047l-.434-1.629a46.9 46.9 0 0 0 -30.493-32.45 56.721 56.721 0 0 0 -51.05-32h-6.338a110.287 110.287 0 0 0 -94.312 53.109 110.287 110.287 0 0 0 -15.974 58.337l.174 32.554 104-8z"
       fill="#533222"
       id="path12" />
    <path
       d="m255.814 319.984h-.059a59.753 59.753 0 0 1 -49.53-26.369 180.075 180.075 0 0 1 -30.725-100.588c0-13.93 0-25.027 0-25.027l22.69-5.628a84.066 84.066 0 0 0 57.81-50.372l.073.183a84.069 84.069 0 0 0 57.512 50.3l21.915 5.517v25.953a180.079 180.079 0 0 1 -29.761 99.162l-.012.018a59.754 59.754 0 0 1 -49.913 26.851z"
       fill="#fdc9a6"
       id="path14" />
    <g
       fill="#533222"
       id="g24">
      <circle
         cx="289.496"
         cy="202"
         r="11"
         id="circle18" />
      <circle
         cx="221.496"
         cy="202"
         r="11"
         id="circle22" />
    </g>
    <path
       d="m264 248h-16a8 8 0 0 1 -8-8v-16a8 8 0 0 1 16 0v8h8a8 8 0 0 1 0 16z"
       fill="#e6af89"
       id="path28" />
    <path
       d="m96 488v-32a8 8 0 0 1 16 0v32z"
       fill="#bf2734"
       id="path30" />
    <path
       d="m400 488v-32a8 8 0 0 1 16 0v32z"
       fill="#bf2734"
       id="path32" />
    <path
       d="m175.5 176h-11.06a20.944 20.944 0 0 0 -20.94 20.944v14.112a20.944 20.944 0 0 0 2.211 9.366 20.944 20.944 0 0 0 18.729 11.578h19.56z"
       fill="#fdc9a6"
       id="path34" />
    <path
       d="m335.5 176h11.055a20.944 20.944 0 0 1 20.945 20.944v14.112a20.944 20.944 0 0 1 -2.211 9.366 20.944 20.944 0 0 1 -18.738 11.578h-18.551z"
       fill="#fdc9a6"
       id="path36" />
    <path
       d="m256 384-40-48-32 24 9.385 32.848a31.922 31.922 0 0 0 30.693 23.152 31.922 31.922 0 0 0 31.922-31.922z"
       fill="#eaeae8"
       id="path38" />
    <path
       d="m256 384 40-48 32 24-9.385 32.848a31.922 31.922 0 0 1 -30.693 23.152 31.922 31.922 0 0 1 -31.922-31.922z"
       fill="#eaeae8"
       id="path40" />
    <ellipse
       cx="165.794"
       cy="367.189"
       fill="#533222"
       rx="74.087"
       ry="63.603"
       transform="matrix(.209 -.978 .978 .209 -227.907 452.718)"
       id="ellipse42" />
  </g>
  <path
     d="m 304.16194,180 h -24 a 8,8 0 0 1 0,-16 h 24 a 8,8 0 0 1 0,16 z"
     id="path18"
     style="fill:#533222;fill-opacity:1" />
  <path
     d="m 231.82547,180 h -24 a 8,8 0 0 1 0,-16 h 24 a 8,8 0 0 1 0,16 z"
     id="path22"
     style="fill:#533222;fill-opacity:1" />
  <path
     style="fill:none;fill-opacity:1;stroke:#e6af89;stroke-width:10.7321;stroke-linecap:round;stroke-linejoin:miter;stroke-miterlimit:4;stroke-dasharray:none;stroke-opacity:1"
     d="m 276.92655,264.25267 c -4.96612,6.11489 -13.51388,7.1504 -20.87508,7.1504 -7.36121,0 -15.06317,-1.27533 -20.87509,-7.1504"
     id="path884-5"
     sodipodi:nodetypes="csc" />
</svg>
