<?xml version="1.0" encoding="UTF-8" standalone="no"?>
<svg
   xmlns:dc="http://purl.org/dc/elements/1.1/"
   xmlns:cc="http://creativecommons.org/ns#"
   xmlns:rdf="http://www.w3.org/1999/02/22-rdf-syntax-ns#"
   xmlns:svg="http://www.w3.org/2000/svg"
   xmlns="http://www.w3.org/2000/svg"
   xmlns:sodipodi="http://sodipodi.sourceforge.net/DTD/sodipodi-0.dtd"
   xmlns:inkscape="http://www.inkscape.org/namespaces/inkscape"
   version="1.1"
   id="Capa_1"
   x="0px"
   y="0px"
   viewBox="0 0 53 53"
   style="enable-background:new 0 0 53 53;"
   xml:space="preserve"
   sodipodi:docname="condominio.svg"
   inkscape:version="1.0.2-2 (e86c870879, 2021-01-15)"><metadata
   id="metadata51"><rdf:RDF><cc:Work
       rdf:about=""><dc:format>image/svg+xml</dc:format><dc:type
         rdf:resource="http://purl.org/dc/dcmitype/StillImage" /><dc:title></dc:title></cc:Work></rdf:RDF></metadata><defs
   id="defs49" /><sodipodi:namedview
   pagecolor="#ffffff"
   bordercolor="#666666"
   borderopacity="1"
   objecttolerance="10"
   gridtolerance="10"
   guidetolerance="10"
   inkscape:pageopacity="0"
   inkscape:pageshadow="2"
   inkscape:window-width="1366"
   inkscape:window-height="705"
   id="namedview47"
   showgrid="false"
   showguides="true"
   inkscape:guide-bbox="true"
   inkscape:zoom="7.1778009"
   inkscape:cx="28.621882"
   inkscape:cy="27.47933"
   inkscape:window-x="-8"
   inkscape:window-y="-8"
   inkscape:window-maximized="1"
   inkscape:current-layer="Capa_1"><sodipodi:guide
     position="5,54.671821"
     orientation="-1,0"
     id="guide876"
     inkscape:label=""
     inkscape:locked="false"
     inkscape:color="rgb(0,0,255)" /><sodipodi:guide
     position="-2.229095,48"
     orientation="0,1"
     id="guide878"
     inkscape:label=""
     inkscape:locked="false"
     inkscape:color="rgb(0,0,255)" /></sodipodi:namedview>
<g
   id="g14"
   transform="matrix(0.81073722,0,0,0.81073722,5.0154637,5.0154637)">
	<g
   id="g12">
		<path
   d="m 49,8 c 0.552,0 1,-0.448 1,-1 V 1 C 50,0.448 49.552,0 49,0 H 4 C 3.448,0 3,0.448 3,1 V 7 C 3,7.552 3.448,8 4,8 H 8 V 45 H 7.005 C 4.796,45 3,46.794 3,49 v 3 c 0,0.552 0.448,1 1,1 h 45 c 0.552,0 1,-0.448 1,-1 v -3 c 0,-2.206 -1.796,-4 -4.005,-4 H 45 V 8 Z M 5,2 H 48 V 6 H 44 9 5 Z m 43,47 v 2 H 5 V 49 C 5,47.897 5.899,47 7.005,47 H 9 22 31 44 45.995 C 47.101,47 48,47.897 48,49 Z M 30,45 H 23 V 33 h 7 z m 13,0 H 32 V 32 c 0,-0.552 -0.448,-1 -1,-1 h -9 c -0.552,0 -1,0.448 -1,1 V 45 H 10 V 8 h 33 z"
   id="path2" />
		<path
   d="m 13,19 h 7 c 0.552,0 1,-0.448 1,-1 v -7 c 0,-0.552 -0.448,-1 -1,-1 h -7 c -0.552,0 -1,0.448 -1,1 v 7 c 0,0.552 0.448,1 1,1 z m 1,-7 h 5 v 5 h -5 z"
   id="path4" />
		<path
   d="m 33,19 h 7 c 0.552,0 1,-0.448 1,-1 v -7 c 0,-0.552 -0.448,-1 -1,-1 h -7 c -0.552,0 -1,0.448 -1,1 v 7 c 0,0.552 0.448,1 1,1 z m 1,-7 h 5 v 5 h -5 z"
   id="path6" />
		<path
   d="m 13,30 h 7 c 0.552,0 1,-0.448 1,-1 v -7 c 0,-0.552 -0.448,-1 -1,-1 h -7 c -0.552,0 -1,0.448 -1,1 v 7 c 0,0.552 0.448,1 1,1 z m 1,-7 h 5 v 5 h -5 z"
   id="path8" />
		<path
   d="m 33,30 h 7 c 0.552,0 1,-0.448 1,-1 v -7 c 0,-0.552 -0.448,-1 -1,-1 h -7 c -0.552,0 -1,0.448 -1,1 v 7 c 0,0.552 0.448,1 1,1 z m 1,-7 h 5 v 5 h -5 z"
   id="path10" />
	</g>
</g>
<g
   id="g16">
</g>
<g
   id="g18">
</g>
<g
   id="g20">
</g>
<g
   id="g22">
</g>
<g
   id="g24">
</g>
<g
   id="g26">
</g>
<g
   id="g28">
</g>
<g
   id="g30">
</g>
<g
   id="g32">
</g>
<g
   id="g34">
</g>
<g
   id="g36">
</g>
<g
   id="g38">
</g>
<g
   id="g40">
</g>
<g
   id="g42">
</g>
<g
   id="g44">
</g>
</svg>
