<?xml version="1.0" encoding="UTF-8" standalone="no"?>
<svg
   xmlns:dc="http://purl.org/dc/elements/1.1/"
   xmlns:cc="http://creativecommons.org/ns#"
   xmlns:rdf="http://www.w3.org/1999/02/22-rdf-syntax-ns#"
   xmlns:svg="http://www.w3.org/2000/svg"
   xmlns="http://www.w3.org/2000/svg"
   xmlns:sodipodi="http://sodipodi.sourceforge.net/DTD/sodipodi-0.dtd"
   xmlns:inkscape="http://www.inkscape.org/namespaces/inkscape"
   viewBox="0 0 511 511.99978"
   version="1.1"
   id="svg12"
   sodipodi:docname="credito.svg"
   inkscape:version="1.0.2-2 (e86c870879, 2021-01-15)">
  <metadata
     id="metadata18">
    <rdf:RDF>
      <cc:Work
         rdf:about="">
        <dc:format>image/svg+xml</dc:format>
        <dc:type
           rdf:resource="http://purl.org/dc/dcmitype/StillImage" />
      </cc:Work>
    </rdf:RDF>
  </metadata>
  <defs
     id="defs16" />
  <sodipodi:namedview
     pagecolor="#ffffff"
     bordercolor="#666666"
     borderopacity="1"
     objecttolerance="10"
     gridtolerance="10"
     guidetolerance="10"
     inkscape:pageopacity="0"
     inkscape:pageshadow="2"
     inkscape:window-width="1366"
     inkscape:window-height="705"
     id="namedview14"
     showgrid="false"
     showguides="true"
     inkscape:guide-bbox="true"
     inkscape:zoom="0.74301486"
     inkscape:cx="195.99118"
     inkscape:cy="296.1591"
     inkscape:window-x="-8"
     inkscape:window-y="-8"
     inkscape:window-maximized="1"
     inkscape:current-layer="svg12">
    <sodipodi:guide
       position="50,586.23023"
       orientation="-1,0"
       id="guide843"
       inkscape:label=""
       inkscape:locked="false"
       inkscape:color="rgb(0,0,255)" />
    <sodipodi:guide
       position="-83.747177,461.99978"
       orientation="0,1"
       id="guide845"
       inkscape:label=""
       inkscape:locked="false"
       inkscape:color="rgb(0,0,255)" />
  </sodipodi:namedview>
  <g
     id="g852"
     transform="matrix(0.80450048,0,0,0.80450048,50.130197,50.047799)">
    <path
       d="m 296.41797,151.95703 c -5.51953,0 -9.9961,4.48047 -9.9961,10 0,5.51563 4.47657,9.99609 9.9961,9.99609 5.51953,0 9.99609,-4.48046 9.99609,-9.99609 0,-5.51953 -4.47656,-10 -9.99609,-10 z m 0,0"
       id="path2" />
    <path
       d="m 235.79297,347.26562 c 3.90234,-3.91015 3.90234,-10.23828 0,-14.14843 -3.90625,-3.89844 -10.23438,-3.89844 -14.14453,0 -3.89844,3.91015 -3.89844,10.23828 0,14.14843 3.91015,3.89844 10.23828,3.89844 14.14453,0 z m 0,0"
       id="path4" />
    <path
       d="m 115.65234,509.04297 c 3.875,3.90625 10.1836,3.94922 14.10938,0.082 l 48.46875,-47.75 c 8.23437,-8.23438 10.73828,-20.42578 7.11719,-31.02344 l 10.42578,-10.05469 c 5.61328,-5.42187 13.0039,-8.41015 20.8164,-8.41015 h 132.90235 c 23.57812,0 45.86328,-9.05469 62.75781,-25.4961 0.69531,-0.67578 -5.27734,6.35938 90.66797,-108.3125 14.23047,-16.83593 12.10156,-42.11718 -4.75,-56.36328 -16.7461,-14.11328 -41.83203,-12.08593 -56.10156,4.46094 l -58.99219,60.63281 c -7.44922,-9.16797 -18.8086,-14.88281 -31.08203,-14.88281 H 240.51172 c -15.86328,-6.63672 -32.69531,-9.99609 -50.0625,-9.99609 -48.125,0 -90.16797,22.21875 -112.734376,63.92187 -9.503906,-1.80078 -19.527344,1.07422 -26.738282,8.28516 L 3.417969,381.83594 c -3.882813,3.89453 -3.890625,10.19531 -0.015625,14.09765 z m 74.79297,-227.1211 c 15.3125,0 30.11719,3.08204 44.01172,9.16016 1.26563,0.55469 2.62891,0.83985 4.00781,0.83985 h 113.52735 c 10.83984,0 19.99609,8.83984 19.99609,19.99218 0,11.02735 -8.96875,19.9961 -19.99609,19.9961 h -81.56641 c -5.51953,0 -9.99609,4.47656 -9.99609,9.99609 0,5.52344 4.47656,9.99609 9.99609,9.99609 h 81.56641 c 22.05078,0 39.98828,-17.9375 39.98828,-39.98828 0,-1.75781 -0.125,-3.5 -0.35156,-5.22656 57.0664,-58.66016 65.11328,-66.90234 65.45703,-67.3125 7.125,-8.41016 19.77344,-9.47656 28.1875,-2.38281 8.42187,7.12109 9.48828,19.76172 2.34375,28.21875 l -89.66797,107.19531 c -13.09375,12.57031 -30.28516,19.48828 -48.45703,19.48828 H 216.58984 c -13.02343,0 -25.35156,4.98047 -34.70312,14.01563 l -8.49609,8.19921 -78.320318,-78.3164 C 113.375,301.45312 147.72266,281.92187 190.44531,281.92187 Z M 65.125,348.26562 c 3.296875,-3.29687 8.359375,-3.89062 12.378906,-1.40625 1.527344,0.92969 87.035154,86.64844 87.562504,87.35547 2.92578,3.94141 2.50781,9.53907 -0.91797,12.96875 l -41.32031,40.70703 -98.230474,-98.98046 z m 0,0"
       id="path6" />
    <path
       d="m 156.45703,211.94141 h 239.93359 c 16.53907,0 29.99219,-13.45313 29.99219,-29.99219 0,-25.19922 0,-133.835939 0,-151.957032 C 426.38281,13.453125 412.92969,0 396.39062,0 H 156.45703 C 139.91797,0 126.46484,13.453125 126.46484,29.992188 V 181.94922 c 0,16.53906 13.45313,29.99219 29.99219,29.99219 z M 406.38672,79.976562 H 146.46094 V 59.984375 h 259.92578 z m -9.9961,111.972658 H 156.45703 c -5.51172,0 -9.99609,-4.48828 -9.99609,-10 V 99.972656 h 259.92578 v 81.976564 c 0,5.51172 -4.48438,10 -9.9961,10 z M 156.45703,19.996094 h 239.93359 c 5.51172,0 9.9961,4.484375 9.9961,9.996094 v 9.996093 H 146.46094 v -9.996093 c 0,-5.511719 4.48437,-9.996094 9.99609,-9.996094 z m 0,0"
       id="path8" />
    <path
       d="m 376.39453,151.95703 h -39.98828 c -5.51953,0 -9.99609,4.47656 -9.99609,10 0,5.51953 4.47656,9.99609 9.99609,9.99609 h 39.98828 c 5.52344,0 10,-4.47656 10,-9.99609 0,-5.52344 -4.47656,-10 -10,-10 z m 0,0"
       id="path10" />
  </g>
</svg>
