<?xml version="1.0" encoding="UTF-8" standalone="no"?>
<svg
   xmlns:dc="http://purl.org/dc/elements/1.1/"
   xmlns:cc="http://creativecommons.org/ns#"
   xmlns:rdf="http://www.w3.org/1999/02/22-rdf-syntax-ns#"
   xmlns:svg="http://www.w3.org/2000/svg"
   xmlns="http://www.w3.org/2000/svg"
   xmlns:sodipodi="http://sodipodi.sourceforge.net/DTD/sodipodi-0.dtd"
   xmlns:inkscape="http://www.inkscape.org/namespaces/inkscape"
   height="512"
   viewBox="0 0 512 512"
   width="512"
   version="1.1"
   id="svg47"
   sodipodi:docname="disenador-grafico.svg"
   inkscape:version="1.0.2-2 (e86c870879, 2021-01-15)">
  <metadata
     id="metadata53">
    <rdf:RDF>
      <cc:Work
         rdf:about="">
        <dc:format>image/svg+xml</dc:format>
        <dc:type
           rdf:resource="http://purl.org/dc/dcmitype/StillImage" />
      </cc:Work>
    </rdf:RDF>
  </metadata>
  <defs
     id="defs51" />
  <sodipodi:namedview
     pagecolor="#ffffff"
     bordercolor="#666666"
     borderopacity="1"
     objecttolerance="10"
     gridtolerance="10"
     guidetolerance="10"
     inkscape:pageopacity="0"
     inkscape:pageshadow="2"
     inkscape:window-width="1366"
     inkscape:window-height="705"
     id="namedview49"
     showgrid="false"
     showguides="true"
     inkscape:guide-bbox="true"
     inkscape:zoom="4.203125"
     inkscape:cx="254.3123"
     inkscape:cy="267.5101"
     inkscape:window-x="-8"
     inkscape:window-y="-8"
     inkscape:window-maximized="1"
     inkscape:current-layer="svg47">
    <sodipodi:guide
       position="256,280"
       orientation="1,0"
       id="guide887" />
  </sodipodi:namedview>
  <g
     id="flat">
    <path
       d="m336 488h144l-3.554-24.879a60 60 0 0 0 -32.564-45.18l-147.882-73.941h-80l-147.882 73.941a60 60 0 0 0 -32.564 45.18l-3.554 24.879h144"
       fill="#48351b"
       id="path2" />
    <path
       d="m424 488v-32a8 8 0 0 1 16 0v32z"
       fill="#332613"
       id="path4" />
    <path
       d="m216 344-64 32 24 48 40-32z"
       fill="#5f4623"
       id="path6" />
    <path
       d="m208 488h-32l-24-72 56-24z"
       fill="#6e5129"
       id="path8" />
    <path
       d="m296 344 64 32-24 48-40-32z"
       fill="#5f4623"
       id="path10" />
    <path
       d="m304 488h32l24-72-56-24z"
       fill="#6e5129"
       id="path12" />
    <path
       d="m296 312v19.64c-.08.06-.17.11-.25.17a70.9 70.9 0 0 1 -79.75-.17v-19.64z"
       fill="#e6af89"
       id="path14" />
    <path
       d="m216 312v32l-8 24 48 48 48-48-8-24v-32z"
       fill="#fdc9a6"
       id="path16" />
    <path
       d="m296 312v19.64c-.08.06-.17.11-.25.17a70.9 70.9 0 0 1 -79.75-.17v-19.64z"
       fill="#e6af89"
       id="path18" />
    <path
       d="m304 368-48 48-48-48v120h96z"
       fill="#026ca2"
       id="path20" />
    <path
       d="m72 488v-32a8 8 0 0 1 16 0v32z"
       fill="#332613"
       id="path22" />
    <path
       d="m152 200v-72.022a57.888 57.888 0 0 1 16.955-40.933l14.09-14.09a57.888 57.888 0 0 1 40.933-16.955h44.245a57.889 57.889 0 0 1 51.777 32 44.846 44.846 0 0 1 37.313 19.969 16 16 0 0 1 2.687 8.875v83.156z"
       fill="#55300b"
       id="path24" />
    <path
       d="m256 328a70.9 70.9 0 0 1 -65.827-44.567 198.156 198.156 0 0 1 -14.173-73.596v-57.837l24-40.73h112l24 40.73v57.837a198.156 198.156 0 0 1 -14.173 73.6 70.9 70.9 0 0 1 -65.827 44.563z"
       fill="#fdc9a6"
       id="path26" />
    <g
       fill="#55300b"
       id="g36">
      <path
         d="m304 184h-24a8 8 0 0 1 0-16h24a8 8 0 0 1 0 16z"
         id="path28" />
      <circle
         cx="290"
         cy="202"
         r="10"
         id="circle30" />
      <path
         d="m232 184h-24a8 8 0 0 1 0-16h24a8 8 0 0 1 0 16z"
         id="path32" />
      <circle
         cx="222"
         cy="202"
         r="10"
         id="circle34" />
    </g>
    <path
       d="m264 248h-16a8 8 0 0 1 -8-8v-24a8 8 0 0 1 16 0v16h8a8 8 0 0 1 0 16z"
       fill="#e6af89"
       id="path40" />
    <path
       d="m176 176h-11.056a20.944 20.944 0 0 0 -20.944 20.944v14.112a20.944 20.944 0 0 0 2.211 9.366 20.944 20.944 0 0 0 18.733 11.578h19.056z"
       fill="#fdc9a6"
       id="path42" />
    <path
       d="m336 176h11.056a20.944 20.944 0 0 1 20.944 20.944v14.112a20.944 20.944 0 0 1 -2.211 9.366 20.944 20.944 0 0 1 -18.733 11.578h-19.056z"
       fill="#fdc9a6"
       id="path44" />
  </g>
  <path
     style="fill:none;fill-opacity:1;stroke:#e6af89;stroke-width:15;stroke-linecap:round;stroke-linejoin:miter;stroke-miterlimit:4;stroke-dasharray:none;stroke-opacity:1"
     d="m 285.02033,262.64183 c -6.91446,8.57945 -18.81574,10.03233 -29.06496,10.03233 -10.24922,0 -20.97287,-1.78934 -29.06496,-10.03233"
     id="path884-5"
     sodipodi:nodetypes="csc" />
</svg>
