<?xml version="1.0" encoding="UTF-8" standalone="no"?>
<svg
   xmlns:dc="http://purl.org/dc/elements/1.1/"
   xmlns:cc="http://creativecommons.org/ns#"
   xmlns:rdf="http://www.w3.org/1999/02/22-rdf-syntax-ns#"
   xmlns:svg="http://www.w3.org/2000/svg"
   xmlns="http://www.w3.org/2000/svg"
   xmlns:sodipodi="http://sodipodi.sourceforge.net/DTD/sodipodi-0.dtd"
   xmlns:inkscape="http://www.inkscape.org/namespaces/inkscape"
   version="1.1"
   id="Capa_1"
   x="0px"
   y="0px"
   viewBox="0 0 480 480"
   style="enable-background:new 0 0 480 480;"
   xml:space="preserve"
   sodipodi:docname="dish.svg"
   inkscape:version="1.0.2-2 (e86c870879, 2021-01-15)"><metadata
   id="metadata95"><rdf:RDF><cc:Work
       rdf:about=""><dc:format>image/svg+xml</dc:format><dc:type
         rdf:resource="http://purl.org/dc/dcmitype/StillImage" /><dc:title></dc:title></cc:Work></rdf:RDF></metadata><defs
   id="defs93" /><sodipodi:namedview
   pagecolor="#ffffff"
   bordercolor="#666666"
   borderopacity="1"
   objecttolerance="10"
   gridtolerance="10"
   guidetolerance="10"
   inkscape:pageopacity="0"
   inkscape:pageshadow="2"
   inkscape:window-width="1366"
   inkscape:window-height="705"
   id="namedview91"
   showgrid="false"
   showguides="true"
   inkscape:guide-bbox="true"
   inkscape:zoom="0.56041667"
   inkscape:cx="263.10658"
   inkscape:cy="212.93365"
   inkscape:window-x="-8"
   inkscape:window-y="-8"
   inkscape:window-maximized="1"
   inkscape:current-layer="Capa_1"><sodipodi:guide
     position="48,533.5316"
     orientation="-1,0"
     id="guide920"
     inkscape:label=""
     inkscape:locked="false"
     inkscape:color="rgb(0,0,255)" /><sodipodi:guide
     position="-33.903346,432"
     orientation="0,1"
     id="guide922"
     inkscape:label=""
     inkscape:locked="false"
     inkscape:color="rgb(0,0,255)" /></sodipodi:namedview>








<g
   id="g953"
   transform="matrix(0.8,0,0,0.8,48,48)"><g
     id="g6">
	<g
   id="g4">
		<path
   d="m 339.904,161.776 -5.136,-16.904 c -6.524,-19.202 -27.379,-29.479 -46.581,-22.955 -10.802,3.67 -19.285,12.153 -22.955,22.955 l -5.136,16.904 c -4.322,14.256 -5.229,29.329 -2.648,44 2.354,12.352 10.196,22.964 21.312,28.84 L 273.008,363.2 c -0.77,7.177 1.558,14.342 6.4,19.696 10.413,11.39 28.089,12.182 39.479,1.769 0.616,-0.563 1.206,-1.153 1.769,-1.769 4.734,-5.202 7.058,-12.157 6.4,-19.16 L 321.272,234.6 c 11.101,-5.879 18.93,-16.484 21.28,-28.824 2.581,-14.671 1.674,-29.744 -2.648,-44 z m -13.112,41.216 c -1.732,8.874 -8.056,16.155 -16.6,19.112 -3.243,1.219 -5.332,4.387 -5.176,7.848 L 311.096,365 c 0.28,2.649 -0.594,5.29 -2.4,7.248 -4.817,4.769 -12.575,4.769 -17.392,0 -1.896,-2.116 -2.757,-4.964 -2.352,-7.776 l 6.032,-134.52 c 0.156,-3.461 -1.933,-6.629 -5.176,-7.848 -8.544,-2.957 -14.868,-10.238 -16.6,-19.112 -2.14,-12.18 -1.386,-24.693 2.2,-36.528 l 5.136,-16.912 c 3.974,-10.745 15.906,-16.234 26.652,-12.26 5.681,2.101 10.159,6.58 12.26,12.26 l 5.136,16.912 c 3.582,11.836 4.336,24.348 2.2,36.528 z"
   id="path2" />
	</g>
</g><g
     id="g12">
	<g
   id="g10">
		<path
   d="m 216,120 c -4.418,0 -8,3.582 -8,8 v 68.688 l -21.656,21.656 c -1.602,1.596 -2.454,3.797 -2.344,6.056 l 7,140 c 0.167,3.019 -0.929,5.972 -3.024,8.152 -4.379,4.418 -11.511,4.45 -15.93,0.07 -0.024,-0.023 -0.047,-0.047 -0.07,-0.07 -2.096,-2.18 -3.191,-5.133 -3.024,-8.152 L 176,224.4 c 0.112,-2.258 -0.737,-4.458 -2.336,-6.056 L 152,196.688 V 128 c 0,-4.418 -3.582,-8 -8,-8 -4.418,0 -8,3.582 -8,8 v 72 c 0,2.122 0.844,4.156 2.344,5.656 l 21.488,21.496 -6.824,136.472 c -0.726,14.907 10.77,27.581 25.677,28.307 14.907,0.726 27.581,-10.77 28.307,-25.677 0.043,-0.876 0.043,-1.753 0,-2.629 l -6.824,-136.472 21.488,-21.496 c 1.5,-1.5 2.344,-3.534 2.344,-5.656 v -72 C 224,123.582 220.418,120 216,120 Z"
   id="path8" />
	</g>
</g><g
     id="g18">
	<g
   id="g16">
		<path
   d="m 168,120 c -4.418,0 -8,3.582 -8,8 v 64 c 0,4.418 3.582,8 8,8 4.418,0 8,-3.582 8,-8 v -64 c 0,-4.418 -3.582,-8 -8,-8 z"
   id="path14" />
	</g>
</g><g
     id="g24">
	<g
   id="g22">
		<path
   d="m 192,120 c -4.418,0 -8,3.582 -8,8 v 64 c 0,4.418 3.582,8 8,8 4.418,0 8,-3.582 8,-8 v -64 c 0,-4.418 -3.582,-8 -8,-8 z"
   id="path20" />
	</g>
</g><g
     id="g30">
	<g
   id="g28">
		<path
   d="M 240,0 C 107.452,0 0,107.452 0,240 0,372.548 107.452,480 240,480 372.548,480 480,372.548 480,240 479.85,107.514 372.486,0.15 240,0 Z m 0,464 C 116.288,464 16,363.712 16,240 16,116.288 116.288,16 240,16 363.712,16 464,116.288 464,240 463.859,363.653 363.653,463.859 240,464 Z"
   id="path26" />
	</g>
</g><g
     id="g36">
	<g
   id="g34">
		<path
   d="m 265.969,390.172 c -0.429,-4.397 -4.342,-7.614 -8.74,-7.185 -0.103,0.01 -0.206,0.022 -0.309,0.036 l 0.032,-0.008 c -11.263,1.308 -22.641,1.308 -33.904,0 -4.39,-0.515 -8.365,2.626 -8.88,7.016 -0.515,4.39 2.626,8.365 7.016,8.88 12.491,1.459 25.109,1.459 37.6,0 4.397,-0.428 7.614,-4.341 7.185,-8.739 z"
   id="path32" />
	</g>
</g><g
     id="g42">
	<g
   id="g40">
		<path
   d="m 362.4,136.912 c -2.839,-3.385 -7.885,-3.828 -11.27,-0.988 -0.011,0.009 -0.022,0.019 -0.034,0.028 -3.377,2.848 -3.807,7.894 -0.96,11.272 48.235,57.26 44.545,141.929 -8.488,194.776 -3.13,3.119 -3.139,8.186 -0.02,11.316 3.119,3.13 8.186,3.139 11.316,0.02 58.937,-58.713 63.047,-152.795 9.456,-216.424 z"
   id="path38" />
	</g>
</g><g
     id="g52">
	<g
   id="g50">
		<g
   id="g48">
			<path
   d="m 186.392,105.744 c -0.005,0 -0.01,-0.001 -0.015,-0.001 -0.008,0 -0.016,0.001 -0.025,0.001 z"
   id="path44" />
			<path
   d="m 277.736,84.472 c -31.265,-7.493 -64.055,-5.479 -94.168,5.784 -4.136,1.555 -6.227,6.169 -4.672,10.304 1.172,3.117 4.152,5.18 7.481,5.183 0.957,-0.005 1.905,-0.18 2.799,-0.519 27.118,-10.141 56.646,-11.952 84.8,-5.2 4.295,1.038 8.618,-1.601 9.656,-5.896 1.038,-4.295 -1.601,-8.618 -5.896,-9.656 z"
   id="path46" />
		</g>
	</g>
</g><g
     id="g58">
	<g
   id="g56">
		<path
   d="M 137.992,341.6 C 111.023,314.677 95.908,278.108 96,240 c -0.079,-30.446 9.565,-60.122 27.528,-84.704 2.655,-3.532 1.944,-8.547 -1.588,-11.202 -3.532,-2.655 -8.547,-1.944 -11.202,1.588 -0.047,0.063 -0.093,0.126 -0.138,0.19 -46.253,63.588 -39.447,151.359 16.056,207.056 3.128,3.13 8.202,3.132 11.332,0.004 3.13,-3.128 3.132,-8.202 0.004,-11.332 z"
   id="path54" />
	</g>
</g></g>
<g
   id="g60">
</g>
<g
   id="g62">
</g>
<g
   id="g64">
</g>
<g
   id="g66">
</g>
<g
   id="g68">
</g>
<g
   id="g70">
</g>
<g
   id="g72">
</g>
<g
   id="g74">
</g>
<g
   id="g76">
</g>
<g
   id="g78">
</g>
<g
   id="g80">
</g>
<g
   id="g82">
</g>
<g
   id="g84">
</g>
<g
   id="g86">
</g>
<g
   id="g88">
</g>
</svg>
