<?xml version="1.0" encoding="UTF-8" standalone="no"?>
<svg
   xmlns:dc="http://purl.org/dc/elements/1.1/"
   xmlns:cc="http://creativecommons.org/ns#"
   xmlns:rdf="http://www.w3.org/1999/02/22-rdf-syntax-ns#"
   xmlns:svg="http://www.w3.org/2000/svg"
   xmlns="http://www.w3.org/2000/svg"
   xmlns:sodipodi="http://sodipodi.sourceforge.net/DTD/sodipodi-0.dtd"
   xmlns:inkscape="http://www.inkscape.org/namespaces/inkscape"
   version="1.1"
   id="Capa_1"
   x="0px"
   y="0px"
   viewBox="0 0 300 300"
   xml:space="preserve"
   sodipodi:docname="efectivo.svg"
   width="300"
   height="300"
   inkscape:version="1.0.2-2 (e86c870879, 2021-01-15)"><metadata
   id="metadata61"><rdf:RDF><cc:Work
       rdf:about=""><dc:format>image/svg+xml</dc:format><dc:type
         rdf:resource="http://purl.org/dc/dcmitype/StillImage" /><dc:title></dc:title></cc:Work></rdf:RDF></metadata><defs
   id="defs59" /><sodipodi:namedview
   pagecolor="#ffffff"
   bordercolor="#666666"
   borderopacity="1"
   objecttolerance="10"
   gridtolerance="10"
   guidetolerance="10"
   inkscape:pageopacity="0"
   inkscape:pageshadow="2"
   inkscape:window-width="1366"
   inkscape:window-height="705"
   id="namedview57"
   showgrid="false"
   inkscape:zoom="1.0507812"
   inkscape:cx="307.4052"
   inkscape:cy="173.61211"
   inkscape:window-x="-8"
   inkscape:window-y="-8"
   inkscape:window-maximized="1"
   inkscape:current-layer="Capa_1"
   showguides="true"
   inkscape:guide-bbox="true"><sodipodi:guide
     position="16.823358,270"
     orientation="0,1"
     id="guide900"
     inkscape:label=""
     inkscape:locked="false"
     inkscape:color="rgb(0,0,255)" /><sodipodi:guide
     position="30,289.56952"
     orientation="-1,0"
     id="guide902"
     inkscape:label=""
     inkscape:locked="false"
     inkscape:color="rgb(0,0,255)" /></sodipodi:namedview>



<g
   id="g898"
   transform="matrix(0.47118958,0,0,0.47118958,29.501859,29.511489)"><g
     id="g6">
	<g
   id="g4">
		<path
   d="m 172.55,391.902 c -0.13,-0.64 -0.32,-1.27 -0.57,-1.88 -0.25,-0.6 -0.56,-1.18 -0.92,-1.72 -0.36,-0.55 -0.78,-1.06 -1.24,-1.52 -0.46,-0.46 -0.97,-0.88 -1.52,-1.24 -0.54,-0.36 -1.12,-0.67 -1.73,-0.92 -0.6,-0.25 -1.23,-0.45 -1.87,-0.57 -1.29,-0.26 -2.62,-0.26 -3.9,0 -0.64,0.12 -1.27,0.32 -1.88,0.57 -0.6,0.25 -1.18,0.56 -1.72,0.92 -0.55,0.36 -1.06,0.78 -1.52,1.24 -0.46,0.46 -0.88,0.97 -1.24,1.52 -0.37,0.54 -0.67,1.12 -0.92,1.72 -0.25,0.61 -0.45,1.24 -0.57,1.88 -0.13,0.64 -0.2,1.3 -0.2,1.95 0,0.65 0.07,1.31 0.2,1.95 0.12,0.64 0.32,1.27 0.57,1.87 0.25,0.61 0.55,1.19 0.92,1.73 0.36,0.55 0.78,1.06 1.24,1.52 0.46,0.46 0.97,0.88 1.52,1.24 0.54,0.361 1.12,0.671 1.72,0.921 0.61,0.25 1.24,0.45 1.88,0.57 0.64,0.13 1.3,0.2 1.95,0.2 0.65,0 1.31,-0.07 1.95,-0.2 0.64,-0.12 1.27,-0.32 1.87,-0.57 0.61,-0.25 1.19,-0.561 1.73,-0.921 0.55,-0.36 1.06,-0.78 1.52,-1.24 0.46,-0.46 0.88,-0.97 1.24,-1.52 0.36,-0.54 0.67,-1.12 0.92,-1.73 0.25,-0.6 0.44,-1.23 0.57,-1.87 0.13,-0.64 0.2,-1.3 0.2,-1.95 0,-0.65 -0.07,-1.31 -0.2,-1.95 z"
   id="path2" />
	</g>
</g><g
     id="g12">
	<g
   id="g10">
		<path
   d="m 459.993,394.982 c -0.039,-0.1 -0.079,-0.199 -0.121,-0.297 -9.204,-21.537 -30.79,-29.497 -56.336,-20.772 l -69.668,19.266 c -4.028,-12.198 -14.075,-22.578 -28.281,-27.85 -0.088,-0.032 -0.176,-0.064 -0.265,-0.094 l -76.581,-25.992 c -6.374,-8.239 -26.34,-29.321 -63.723,-29.321 -26.125,0 -49.236,17.922 -62.458,37.457 H 10 c -5.523,0 -10,4.477 -10,10 v 126.077 c 0,5.523 4.477,10 10,10 h 59.457 c 5.523,0 10,-4.477 10,-10 v -8.634 h 27.883 c 5.523,0 10,-4.477 10,-10 v -2.878 c 16.254,1.418 21.6,4.501 36.528,13.109 11.48,6.62 28.831,16.625 60.077,30.674 0.145,0.065 0.292,0.127 0.439,0.185 5.997,2.359 17.72,6.065 32.173,6.065 10.06,0 21.445,-1.797 33.131,-7.094 l 153.991,-55.136 c 0.274,-0.098 0.544,-0.208 0.808,-0.33 14.717,-6.771 36.648,-25.854 25.506,-54.435 z M 59.457,473.455 H 20 V 367.378 H 59.457 Z M 97.34,454.821 H 79.457 V 367.378 H 97.34 Z m 329.156,-23.747 -153.922,55.111 c -0.135,0.048 -0.318,0.12 -0.451,0.174 -0.135,0.055 -0.27,0.113 -0.403,0.174 -21.437,9.852 -41.814,3.954 -49.8,0.849 -30.182,-13.581 -46.291,-22.87 -58.061,-29.657 -16.364,-9.436 -24.249,-13.984 -46.519,-15.823 V 361.36 c 9.479,-15.536 27.861,-31.439 47.679,-31.439 33.986,0 48.387,22.105 48.953,22.997 1.221,1.986 3.098,3.483 5.305,4.232 l 79.475,26.974 c 12.693,4.764 19.401,15.634 16.318,26.474 -1.423,5.006 -4.711,9.158 -9.257,11.691 -4.507,2.511 -9.717,3.132 -14.683,1.758 l -89.593,-28.392 c -5.268,-1.669 -10.886,1.247 -12.554,6.512 -1.669,5.265 1.247,10.885 6.512,12.554 l 89.749,28.441 c 0.095,0.03 0.19,0.059 0.286,0.086 3.583,1.019 7.231,1.523 10.857,1.523 6.638,0 13.203,-1.691 19.161,-5.011 9.213,-5.133 15.875,-13.547 18.759,-23.692 0.23,-0.81 0.434,-1.62 0.611,-2.43 l 75.083,-20.8 c 10.844,-3.704 25.079,-5.039 31.417,9.558 6.56,17.137 -10.49,26.564 -14.922,28.678 z"
   id="path8" />
	</g>
</g><g
     id="g18">
	<g
   id="g16">
		<path
   d="m 359.06,131.543 c -0.13,-0.64 -0.32,-1.27 -0.58,-1.88 -0.25,-0.6 -0.55,-1.18 -0.92,-1.72 -0.36,-0.55 -0.78,-1.06 -1.24,-1.52 -0.46,-0.46 -0.97,-0.88 -1.52,-1.24 -0.54,-0.36 -1.12,-0.67 -1.72,-0.92 -0.61,-0.25 -1.24,-0.45 -1.87,-0.57 -1.29,-0.26 -2.62,-0.26 -3.91,0 -0.64,0.12 -1.27,0.32 -1.87,0.57 -0.61,0.25 -1.19,0.56 -1.73,0.92 -0.55,0.36 -1.06,0.78 -1.52,1.24 -0.46,0.46 -0.88,0.97 -1.24,1.52 -0.36,0.54 -0.67,1.12 -0.92,1.72 -0.25,0.61 -0.45,1.24 -0.57,1.88 -0.13,0.64 -0.2,1.3 -0.2,1.95 0,0.65 0.07,1.31 0.2,1.95 0.12,0.64 0.32,1.27 0.57,1.87 0.25,0.61 0.56,1.19 0.92,1.73 0.36,0.55 0.78,1.06 1.24,1.52 0.46,0.46 0.97,0.88 1.52,1.24 0.54,0.36 1.12,0.67 1.73,0.92 0.6,0.25 1.23,0.44 1.87,0.57 0.64,0.13 1.3,0.2 1.95,0.2 0.65,0 1.31,-0.07 1.96,-0.2 0.63,-0.13 1.26,-0.32 1.87,-0.57 0.6,-0.25 1.18,-0.56 1.72,-0.92 0.55,-0.36 1.06,-0.78 1.52,-1.24 0.46,-0.46 0.88,-0.97 1.24,-1.52 0.37,-0.54 0.67,-1.12 0.92,-1.73 0.26,-0.6 0.45,-1.23 0.58,-1.87 0.13,-0.64 0.19,-1.3 0.19,-1.95 0,-0.65 -0.06,-1.31 -0.19,-1.95 z"
   id="path14" />
	</g>
</g><g
     id="g24">
	<g
   id="g22">
		<path
   d="m 502,33.891 h -59.457 c -5.523,0 -10,4.477 -10,10 v 8.634 H 404.66 c -5.523,0 -10,4.477 -10,10 v 2.878 c -16.254,-1.419 -21.6,-4.501 -36.527,-13.109 -11.48,-6.62 -28.831,-16.625 -60.078,-30.674 -0.145,-0.066 -0.291,-0.127 -0.44,-0.185 -10.171,-4.002 -36.828,-11.876 -65.299,1.027 L 192.076,36.87 158.157,2.952 c -3.905,-3.905 -10.237,-3.905 -14.142,0 L 32.657,114.309 c -3.602,3.603 -4.293,9.85 0,14.143 l 190.287,190.287 c 3.045,3.046 10.175,3.967 14.143,0 L 338.752,217.075 c 2.643,0.228 5.386,0.351 8.229,0.351 26.126,0 49.236,-17.922 62.457,-37.456 H 502 c 5.523,0 10,-4.477 10,-10 V 43.891 c 0,-5.523 -4.477,-10 -10,-10 z m -350.915,-9.726 22.792,22.792 c -6.775,4.19 -14.608,6.432 -22.792,6.432 -8.185,0 -16.017,-2.241 -22.792,-6.432 z M 76.663,144.173 53.871,121.38 76.663,98.588 c 4.19,6.775 6.432,14.608 6.432,22.792 0,8.184 -2.241,16.017 -6.432,22.793 z m 153.353,153.352 -22.788,-22.788 c 13.913,-8.586 31.661,-8.586 45.575,0 z m 37.195,-37.194 c -22.098,-16.03 -52.292,-16.03 -74.39,0 L 91.07,158.579 c 7.809,-10.74 12.025,-23.641 12.025,-37.199 0,-13.559 -4.215,-26.459 -12.025,-37.199 l 22.817,-22.816 c 10.74,7.809 23.64,12.025 37.199,12.025 13.559,0 26.459,-4.216 37.199,-12.025 l 21.629,21.629 c -4.667,0.689 -9.218,2.227 -13.462,4.592 -7.168,3.994 -12.792,9.975 -16.294,17.211 -11.28,2.089 -21.723,7.55 -29.915,15.741 -22.225,22.226 -22.225,58.389 0.001,80.615 11.112,11.112 25.709,16.669 40.307,16.669 14.597,0 29.195,-5.556 40.308,-16.669 7.23,-7.23 12.295,-16.116 14.832,-25.8 l 33.764,11.459 c -3.801,17.608 0.092,36.132 10.593,50.682 z m -60.798,-98.313 c 0.088,0.032 0.176,0.064 0.265,0.094 l 19.996,6.787 c -1.51,6.815 -4.927,13.081 -9.957,18.112 -14.428,14.426 -37.904,14.428 -52.33,0 -14.428,-14.427 -14.428,-37.902 0,-52.33 3.48,-3.482 7.587,-6.203 12.062,-8.048 1.846,15.362 12.907,29.055 29.964,35.385 z m 98.044,61.066 c -3.86,-6.29 -6.044,-13.469 -6.389,-20.796 4.79,3.463 10.644,6.856 17.636,9.549 z m 90.202,-57.101 c -9.478,15.538 -27.86,31.441 -47.678,31.441 -3.708,0 -7.183,-0.264 -10.432,-0.734 -0.013,-0.002 -0.026,-0.004 -0.039,-0.006 -21.596,-3.137 -33.213,-15.411 -37.042,-20.271 -0.204,-0.3 -1.073,-1.437 -1.202,-1.626 -1.165,-2.082 -3.075,-3.756 -5.511,-4.583 l -79.508,-26.985 c -12.688,-4.762 -19.395,-15.627 -16.321,-26.463 0.002,-0.007 0.004,-0.014 0.006,-0.021 0.003,-0.008 0.005,-0.017 0.007,-0.025 1.429,-4.99 4.711,-9.129 9.247,-11.656 4.506,-2.511 9.715,-3.134 14.683,-1.757 l 89.593,28.391 c 5.266,1.671 10.886,-1.247 12.554,-6.512 1.668,-5.265 -1.247,-10.885 -6.512,-12.554 l -71.255,-22.58 -0.622,-0.622 c -0.006,-0.006 -0.012,-0.013 -0.019,-0.019 l -36.89,-36.89 31.708,-11.354 c 0.107,-0.039 0.239,-0.088 0.345,-0.131 0.027,-0.011 0.079,-0.031 0.105,-0.042 0.136,-0.055 0.27,-0.113 0.403,-0.174 21.436,-9.852 41.812,-3.955 49.799,-0.849 30.183,13.581 46.293,22.87 58.063,29.657 16.364,9.437 24.249,13.984 46.518,15.823 z m 37.884,-6.015 H 414.66 V 72.525 h 17.883 z m 59.457,0 H 452.543 V 53.891 H 492 Z"
   id="path20" />
	</g>
</g></g>
<g
   id="g26">
</g>
<g
   id="g28">
</g>
<g
   id="g30">
</g>
<g
   id="g32">
</g>
<g
   id="g34">
</g>
<g
   id="g36">
</g>
<g
   id="g38">
</g>
<g
   id="g40">
</g>
<g
   id="g42">
</g>
<g
   id="g44">
</g>
<g
   id="g46">
</g>
<g
   id="g48">
</g>
<g
   id="g50">
</g>
<g
   id="g52">
</g>
<g
   id="g54">
</g>
</svg>
