<?xml version="1.0" encoding="UTF-8" standalone="no"?>
<svg
   xmlns:dc="http://purl.org/dc/elements/1.1/"
   xmlns:cc="http://creativecommons.org/ns#"
   xmlns:rdf="http://www.w3.org/1999/02/22-rdf-syntax-ns#"
   xmlns:svg="http://www.w3.org/2000/svg"
   xmlns="http://www.w3.org/2000/svg"
   xmlns:sodipodi="http://sodipodi.sourceforge.net/DTD/sodipodi-0.dtd"
   xmlns:inkscape="http://www.inkscape.org/namespaces/inkscape"
   height="512"
   viewBox="0 0 512 512"
   width="512"
   version="1.1"
   id="svg55"
   sodipodi:docname="empresario.svg"
   inkscape:version="1.0.2-2 (e86c870879, 2021-01-15)">
  <metadata
     id="metadata61">
    <rdf:RDF>
      <cc:Work
         rdf:about="">
        <dc:format>image/svg+xml</dc:format>
        <dc:type
           rdf:resource="http://purl.org/dc/dcmitype/StillImage" />
      </cc:Work>
    </rdf:RDF>
  </metadata>
  <defs
     id="defs59" />
  <sodipodi:namedview
     pagecolor="#ffffff"
     bordercolor="#666666"
     borderopacity="1"
     objecttolerance="10"
     gridtolerance="10"
     guidetolerance="10"
     inkscape:pageopacity="0"
     inkscape:pageshadow="2"
     inkscape:window-width="1366"
     inkscape:window-height="705"
     id="namedview57"
     showgrid="false"
     showguides="true"
     inkscape:guide-bbox="true"
     inkscape:zoom="5.9441164"
     inkscape:cx="263.36773"
     inkscape:cy="268.73345"
     inkscape:window-x="-8"
     inkscape:window-y="-8"
     inkscape:window-maximized="1"
     inkscape:current-layer="svg55">
    <sodipodi:guide
       position="256,288"
       orientation="1,0"
       id="guide895" />
  </sodipodi:namedview>
  <g
     id="flat">
    <path
       d="m328 352 117.955 65.531a60 60 0 0 1 30.259 43.969l3.786 26.5h-448l3.916-27.411a60 60 0 0 1 28.976-43.231l111.108-65.358z"
       fill="#eaeae8"
       id="path2" />
    <path
       d="m152 200v-88a81.941 81.941 0 0 1 -24-57.941v-30.059l33.918 8.48a251.92 251.92 0 0 0 61.09 7.52h50.309a35.45 35.45 0 0 1 25.066 10.383l21.617 21.617a35.448 35.448 0 0 1 32.913 22.283 99.073 99.073 0 0 1 7.087 36.8v68.917z"
       fill="#683b0d"
       id="path4" />
    <path
       d="m215.994 112a7.976 7.976 0 0 1 -3.572-.847l-17.689-8.844a33.7 33.7 0 0 1 -18.733-30.309 8 8 0 0 1 16 0 17.792 17.792 0 0 0 9.888 16l17.69 8.845a8 8 0 0 1 -3.584 15.155z"
       fill="#533222"
       id="path6" />
    <path
       d="m255.994 112a7.976 7.976 0 0 1 -3.572-.847l-17.689-8.844a33.7 33.7 0 0 1 -18.733-30.309 8 8 0 0 1 16 0 17.792 17.792 0 0 0 9.888 16l17.69 8.845a8 8 0 0 1 -3.584 15.155z"
       fill="#533222"
       id="path8" />
    <path
       d="m295.994 112a7.976 7.976 0 0 1 -3.572-.847l-17.689-8.844a33.7 33.7 0 0 1 -18.733-30.309 8 8 0 0 1 16 0 17.792 17.792 0 0 0 9.888 16l17.69 8.845a8 8 0 0 1 -3.584 15.155z"
       fill="#533222"
       id="path10" />
    <path
       d="m296 328-8-16h-64l-8 16-8 8 48 40 48-38.4z"
       fill="#fdc9a6"
       id="path12" />
    <path
       d="m294.36 324.73a70.918 70.918 0 0 1 -76.72 0l6.36-12.73h64z"
       fill="#e6af89"
       id="path14" />
    <path
       d="m256 320a70.9 70.9 0 0 1 -65.827-44.567 198.156 198.156 0 0 1 -14.173-73.596v-57.837l24-40h112l24 40v57.837a198.156 198.156 0 0 1 -14.173 73.6 70.9 70.9 0 0 1 -65.827 44.563z"
       fill="#fdc9a6"
       id="path16" />
    <g
       fill="#683b0d"
       id="g26">
      <path
         d="m304 176h-24a8 8 0 0 1 0-16h24a8 8 0 0 1 0 16z"
         id="path18" />
      <circle
         cx="290"
         cy="194"
         r="10"
         id="circle20" />
      <path
         d="m232 176h-24a8 8 0 0 1 0-16h24a8 8 0 0 1 0 16z"
         id="path22" />
      <circle
         cx="222"
         cy="194"
         r="10"
         id="circle24" />
    </g>
    <path
       d="m264 240h-16a8 8 0 0 1 -8-8v-24a8 8 0 0 1 16 0v16h8a8 8 0 0 1 0 16z"
       fill="#e6af89"
       id="path30" />
    <path
       d="m176 168h-11.056a20.944 20.944 0 0 0 -20.944 20.944v14.112a20.944 20.944 0 0 0 2.211 9.366 20.944 20.944 0 0 0 18.733 11.578h19.056z"
       fill="#fdc9a6"
       id="path32" />
    <path
       d="m336 168h11.056a20.944 20.944 0 0 1 20.944 20.944v14.112a20.944 20.944 0 0 1 -2.211 9.366 20.944 20.944 0 0 1 -18.733 11.578h-19.056z"
       fill="#fdc9a6"
       id="path34" />
    <path
       d="m72 488v-32a8 8 0 0 1 16 0v32z"
       fill="#cbcbcb"
       id="path36" />
    <path
       d="m424 488v-32a8 8 0 0 1 16 0v32z"
       fill="#cbcbcb"
       id="path38" />
    <path
       d="m272 416h-32l-16-48 32 8 32-8z"
       fill="#0a9acd"
       id="path40" />
    <path
       d="m240 416-8 72h48l-8-72z"
       fill="#0a9acd"
       id="path42" />
    <path
       d="m273.78 432h-35.56l1.78-16h32z"
       fill="#0a9acd"
       id="path44" />
    <path
       d="m400 464h-64a8 8 0 0 1 0-16h64a8 8 0 0 1 0 16z"
       fill="#cbcbcb"
       id="path46" />
    <path
       d="m208 328 48 48-48 24-32-48z"
       fill="#cbcbcb"
       id="path48" />
    <path
       d="m304 400-48-24 48-48 24 24z"
       fill="#cbcbcb"
       id="path50" />
    <path
       d="m273.78 432h-35.56l1.78-16h32z"
       fill="#026ca2"
       id="path52" />
  </g>
  <path
     style="fill:none;fill-opacity:1;stroke:#e6af89;stroke-width:15;stroke-linecap:round;stroke-linejoin:miter;stroke-miterlimit:4;stroke-dasharray:none;stroke-opacity:1"
     d="m 284.98783,255.44703 c -6.91446,8.57945 -18.81574,10.03232 -29.06495,10.03232 -10.24922,0 -20.97287,-1.78934 -29.06496,-10.03232"
     id="path884-5"
     sodipodi:nodetypes="csc" />
</svg>
