<?xml version="1.0" encoding="UTF-8" standalone="no"?>
<svg
   xmlns:dc="http://purl.org/dc/elements/1.1/"
   xmlns:cc="http://creativecommons.org/ns#"
   xmlns:rdf="http://www.w3.org/1999/02/22-rdf-syntax-ns#"
   xmlns:svg="http://www.w3.org/2000/svg"
   xmlns="http://www.w3.org/2000/svg"
   xmlns:sodipodi="http://sodipodi.sourceforge.net/DTD/sodipodi-0.dtd"
   xmlns:inkscape="http://www.inkscape.org/namespaces/inkscape"
   version="1.1"
   id="Capa_1"
   x="0px"
   y="0px"
   viewBox="0 0 480 480"
   style="enable-background:new 0 0 480 480;"
   xml:space="preserve"
   sodipodi:docname="enterprise.svg"
   inkscape:version="1.0.2-2 (e86c870879, 2021-01-15)"><metadata
   id="metadata211"><rdf:RDF><cc:Work
       rdf:about=""><dc:format>image/svg+xml</dc:format><dc:type
         rdf:resource="http://purl.org/dc/dcmitype/StillImage" /><dc:title></dc:title></cc:Work></rdf:RDF></metadata><defs
   id="defs209" /><sodipodi:namedview
   pagecolor="#ffffff"
   bordercolor="#666666"
   borderopacity="1"
   objecttolerance="10"
   gridtolerance="10"
   guidetolerance="10"
   inkscape:pageopacity="0"
   inkscape:pageshadow="2"
   inkscape:window-width="1366"
   inkscape:window-height="705"
   id="namedview207"
   showgrid="false"
   showguides="true"
   inkscape:guide-bbox="true"
   inkscape:zoom="1.1208333"
   inkscape:cx="257.33188"
   inkscape:cy="226.62589"
   inkscape:window-x="-8"
   inkscape:window-y="-8"
   inkscape:window-maximized="1"
   inkscape:current-layer="Capa_1"><sodipodi:guide
     position="48,537.10037"
     orientation="-1,0"
     id="guide1036"
     inkscape:label=""
     inkscape:locked="false"
     inkscape:color="rgb(0,0,255)" /><sodipodi:guide
     position="-42.825279,432"
     orientation="0,1"
     id="guide1038"
     inkscape:label=""
     inkscape:locked="false"
     inkscape:color="rgb(0,0,255)" /></sodipodi:namedview>




























<g
   id="g1127"
   transform="matrix(0.79925651,0,0,0.79925651,48.178438,48.178438)"><g
     id="g6">
	<g
   id="g4">
		<rect
   x="168"
   y="160"
   width="16"
   height="16"
   id="rect2" />
	</g>
</g><g
     id="g12">
	<g
   id="g10">
		<rect
   x="168"
   y="192"
   width="16"
   height="16"
   id="rect8" />
	</g>
</g><g
     id="g18">
	<g
   id="g16">
		<rect
   x="168"
   y="224"
   width="16"
   height="16"
   id="rect14" />
	</g>
</g><g
     id="g24">
	<g
   id="g22">
		<rect
   x="168"
   y="256"
   width="16"
   height="16"
   id="rect20" />
	</g>
</g><g
     id="g30">
	<g
   id="g28">
		<rect
   x="200"
   y="160"
   width="16"
   height="16"
   id="rect26" />
	</g>
</g><g
     id="g36">
	<g
   id="g34">
		<rect
   x="200"
   y="192"
   width="16"
   height="16"
   id="rect32" />
	</g>
</g><g
     id="g42">
	<g
   id="g40">
		<rect
   x="200"
   y="224"
   width="16"
   height="16"
   id="rect38" />
	</g>
</g><g
     id="g48">
	<g
   id="g46">
		<rect
   x="200"
   y="256"
   width="16"
   height="16"
   id="rect44" />
	</g>
</g><g
     id="g54">
	<g
   id="g52">
		<rect
   x="232"
   y="160"
   width="16"
   height="16"
   id="rect50" />
	</g>
</g><g
     id="g60">
	<g
   id="g58">
		<rect
   x="232"
   y="192"
   width="16"
   height="16"
   id="rect56" />
	</g>
</g><g
     id="g66">
	<g
   id="g64">
		<rect
   x="232"
   y="224"
   width="16"
   height="16"
   id="rect62" />
	</g>
</g><g
     id="g72">
	<g
   id="g70">
		<rect
   x="232"
   y="256"
   width="16"
   height="16"
   id="rect68" />
	</g>
</g><g
     id="g78">
	<g
   id="g76">
		<rect
   x="264"
   y="160"
   width="16"
   height="16"
   id="rect74" />
	</g>
</g><g
     id="g84">
	<g
   id="g82">
		<rect
   x="200"
   y="128"
   width="16"
   height="16"
   id="rect80" />
	</g>
</g><g
     id="g90">
	<g
   id="g88">
		<rect
   x="232"
   y="128"
   width="16"
   height="16"
   id="rect86" />
	</g>
</g><g
     id="g96">
	<g
   id="g94">
		<rect
   x="264"
   y="128"
   width="16"
   height="16"
   id="rect92" />
	</g>
</g><g
     id="g102">
	<g
   id="g100">
		<rect
   x="264"
   y="192"
   width="16"
   height="16"
   id="rect98" />
	</g>
</g><g
     id="g108">
	<g
   id="g106">
		<rect
   x="264"
   y="224"
   width="16"
   height="16"
   id="rect104" />
	</g>
</g><g
     id="g114">
	<g
   id="g112">
		<rect
   x="264"
   y="256"
   width="16"
   height="16"
   id="rect110" />
	</g>
</g><g
     id="g120">
	<g
   id="g118">
		<rect
   x="296"
   y="160"
   width="16"
   height="16"
   id="rect116" />
	</g>
</g><g
     id="g126">
	<g
   id="g124">
		<rect
   x="296"
   y="192"
   width="16"
   height="16"
   id="rect122" />
	</g>
</g><g
     id="g132">
	<g
   id="g130">
		<rect
   x="296"
   y="224"
   width="16"
   height="16"
   id="rect128" />
	</g>
</g><g
     id="g138">
	<g
   id="g136">
		<rect
   x="296"
   y="256"
   width="16"
   height="16"
   id="rect134" />
	</g>
</g><g
     id="g144">
	<g
   id="g142">
		<path
   d="m 472.009,120 c -0.003,0 -0.006,0 -0.009,0 H 352 V 8 C 352.003,3.584 348.425,0.003 344.009,0 344.006,0 344.003,0 344,0 H 136 c -4.416,-0.003 -7.997,3.575 -8,7.991 0,0.003 0,0.006 0,0.009 V 120 H 8 c -4.416,-0.003 -7.997,3.575 -8,7.991 0,0.003 0,0.006 0,0.009 v 288 c -0.003,4.416 3.575,7.997 7.991,8 0.003,0 0.006,0 0.009,0 h 16.723 c -0.464,2.642 -0.706,5.318 -0.723,8 v 40 c -0.003,4.416 3.575,7.997 7.991,8 0.003,0 0.006,0 0.009,0 h 416 c 4.416,0.003 7.997,-3.575 8,-7.991 0,-0.003 0,-0.006 0,-0.009 v -40 c -0.016,-2.682 -0.258,-5.358 -0.723,-8 H 472 c 4.416,0.003 7.997,-3.575 8,-7.991 0,-0.003 0,-0.006 0,-0.009 V 128 c 0.003,-4.416 -3.575,-7.997 -7.991,-8 z M 344,344 c 0,8.837 -7.163,16 -16,16 -8.837,0 -16,-7.163 -16,-16 0,-8.837 7.163,-16 16,-16 8.832,0.011 15.989,7.168 16,16 z M 152,328 c 8.837,0 16,7.163 16,16 0,8.837 -7.163,16 -16,16 -8.837,0 -16,-7.163 -16,-16 0.011,-8.832 7.168,-15.989 16,-16 z M 104,464 H 40 v -32 c 0,-17.673 14.327,-32 32,-32 17.673,0 32,14.327 32,32 z M 56,368 c 0,-8.837 7.163,-16 16,-16 8.837,0 16,7.163 16,16 0,8.837 -7.163,16 -16,16 -8.832,-0.011 -15.989,-7.168 -16,-16 z m 49.212,29.425 c -3.017,-2.91 -6.4,-5.414 -10.064,-7.449 12.202,-12.784 11.731,-33.04 -1.053,-45.243 -12.784,-12.203 -33.04,-11.731 -45.243,1.053 -11.803,12.365 -11.803,31.824 0,44.189 -7.636,4.238 -13.98,10.467 -18.358,18.024 H 16 V 136 h 112 v 187.056 c -10.986,12.327 -10.615,31.039 0.852,42.92 -12,6.637 -20.599,18.077 -23.64,31.449 z M 184,464 h -64 v -56 c 0,-17.673 14.327,-32 32,-32 17.673,0 32,14.327 32,32 z m 96,0 h -80 v -56 c 0,-22.091 17.909,-40 40,-40 22.091,0 40,17.909 40,40 z M 216,328 c 0,-13.255 10.745,-24 24,-24 13.255,0 24,10.745 24,24 0,13.255 -10.745,24 -24,24 -13.249,-0.014 -23.986,-10.751 -24,-24 z m 72.722,52.495 c -5.357,-9.444 -13.327,-17.139 -22.953,-22.16 16.897,-14.232 19.057,-39.467 4.826,-56.364 -14.232,-16.897 -39.467,-19.057 -56.364,-4.826 -16.897,14.232 -19.057,39.467 -4.826,56.364 1.468,1.743 3.082,3.357 4.826,4.826 -9.626,5.021 -17.596,12.716 -22.953,22.16 -4.206,-6 -9.722,-10.965 -16.13,-14.519 12.265,-12.547 12.037,-32.662 -0.511,-44.927 -8.079,-7.898 -19.744,-10.91 -30.637,-7.913 V 16 h 192 v 297.136 c -2.607,-0.719 -5.296,-1.101 -8,-1.136 -17.626,-0.047 -31.953,14.204 -32,31.831 -0.022,8.248 3.151,16.185 8.852,22.145 -6.408,3.554 -11.924,8.519 -16.13,14.519 z M 360,432 v 32 h -64 v -56 c 0,-17.673 14.327,-32 32,-32 17.673,0 32,14.327 32,32 z m 80,32 h -64 v -32 c 0,-17.673 14.327,-32 32,-32 17.673,0 32,14.327 32,32 z m -48,-96 c 0,-8.837 7.163,-16 16,-16 8.837,0 16,7.163 16,16 0,8.837 -7.163,16 -16,16 -8.832,-0.011 -15.989,-7.168 -16,-16 z m 72,40 h -14.494 c -4.378,-7.557 -10.722,-13.786 -18.358,-18.024 12.202,-12.784 11.731,-33.04 -1.053,-45.243 -12.784,-12.202 -33.04,-11.731 -45.243,1.053 -11.803,12.365 -11.803,31.824 0,44.189 -3.664,2.035 -7.048,4.539 -10.064,7.449 -3.04,-13.372 -11.64,-24.812 -23.64,-31.449 11.467,-11.881 11.839,-30.593 0.853,-42.92 V 136 h 112 v 272 z"
   id="path140" />
	</g>
</g><g
     id="g150">
	<g
   id="g148">
		<rect
   x="376"
   y="184"
   width="16"
   height="128"
   id="rect146" />
	</g>
</g><g
     id="g156">
	<g
   id="g154">
		<rect
   x="424"
   y="184"
   width="16"
   height="128"
   id="rect152" />
	</g>
</g><g
     id="g162">
	<g
   id="g160">
		<rect
   x="40"
   y="184"
   width="16"
   height="128"
   id="rect158" />
	</g>
</g><g
     id="g168">
	<g
   id="g166">
		<rect
   x="88"
   y="184"
   width="16"
   height="128"
   id="rect164" />
	</g>
</g><g
     id="g174">
	<g
   id="g172">
		<path
   d="m 288.009,32 c -0.003,0 -0.006,0 -0.009,0 h -96 c -4.416,-0.003 -7.997,3.575 -8,7.991 0,0.003 0,0.006 0,0.009 v 64 c -0.003,4.416 3.575,7.997 7.991,8 0.003,0 0.006,0 0.009,0 h 96 c 4.416,0.003 7.997,-3.575 8,-7.991 0,-0.003 0,-0.006 0,-0.009 V 40 c 0.003,-4.416 -3.575,-7.997 -7.991,-8 z M 280,96 H 200 V 48 h 80 z"
   id="path170" />
	</g>
</g></g>
<g
   id="g176">
</g>
<g
   id="g178">
</g>
<g
   id="g180">
</g>
<g
   id="g182">
</g>
<g
   id="g184">
</g>
<g
   id="g186">
</g>
<g
   id="g188">
</g>
<g
   id="g190">
</g>
<g
   id="g192">
</g>
<g
   id="g194">
</g>
<g
   id="g196">
</g>
<g
   id="g198">
</g>
<g
   id="g200">
</g>
<g
   id="g202">
</g>
<g
   id="g204">
</g>
</svg>
