<?xml version="1.0" encoding="UTF-8" standalone="no"?>
<svg
   xmlns:dc="http://purl.org/dc/elements/1.1/"
   xmlns:cc="http://creativecommons.org/ns#"
   xmlns:rdf="http://www.w3.org/1999/02/22-rdf-syntax-ns#"
   xmlns:svg="http://www.w3.org/2000/svg"
   xmlns="http://www.w3.org/2000/svg"
   xmlns:sodipodi="http://sodipodi.sourceforge.net/DTD/sodipodi-0.dtd"
   xmlns:inkscape="http://www.inkscape.org/namespaces/inkscape"
   version="1.1"
   x="0px"
   y="0px"
   viewBox="0 0 50 50"
   style="enable-background:new 0 0 50 50;"
   xml:space="preserve"
   id="svg7"
   sodipodi:docname="happyHouse1.svg"
   inkscape:version="1.0.2-2 (e86c870879, 2021-01-15)"><metadata
   id="metadata13"><rdf:RDF><cc:Work
       rdf:about=""><dc:format>image/svg+xml</dc:format><dc:type
         rdf:resource="http://purl.org/dc/dcmitype/StillImage" /><dc:title /></cc:Work></rdf:RDF></metadata><defs
   id="defs11" /><sodipodi:namedview
   pagecolor="#ffffff"
   bordercolor="#666666"
   borderopacity="1"
   objecttolerance="10"
   gridtolerance="10"
   guidetolerance="10"
   inkscape:pageopacity="0"
   inkscape:pageshadow="2"
   inkscape:window-width="1366"
   inkscape:window-height="705"
   id="namedview9"
   showgrid="false"
   showguides="true"
   inkscape:guide-bbox="true"
   inkscape:zoom="5.38"
   inkscape:cx="28.826219"
   inkscape:cy="2.7986416"
   inkscape:window-x="-8"
   inkscape:window-y="-8"
   inkscape:window-maximized="1"
   inkscape:current-layer="svg7"
   inkscape:document-rotation="0"><sodipodi:guide
     position="3.9429746,45"
     orientation="0,1"
     id="guide839"
     inkscape:label=""
     inkscape:locked="false"
     inkscape:color="rgb(0,0,255)" /><sodipodi:guide
     position="5,45"
     orientation="-1,0"
     id="guide841"
     inkscape:label=""
     inkscape:locked="false"
     inkscape:color="rgb(0,0,255)" /></sodipodi:namedview>
<g
   id="Layer_1"
   transform="matrix(0.84363157,0,0,0.84363157,3.9092107,3.5832746)">
	<path
   id="path2"
   d="M 25,1.5859375 1.2929688,25.292969 2.7070312,26.707031 4,25.414062 V 49 H 18 32 46 V 25.414062 l 1.292969,1.292969 1.414062,-1.414062 L 42,18.585938 V 4 h -9 v 5.5859375 z m 0,2.828125 19,18.9999995 V 47 H 32 L 38.087891,36.337891 H 11.912109 L 18,47 H 6 V 23.414062 Z M 35,6 h 5 v 10.585938 l -5,-5 z m -5.033203,15.347656 a 2.6951673,5.5297399 0 0 0 -2.695313,5.53125 2.6951673,5.5297399 0 0 0 2.695313,5.529297 2.6951673,5.5297399 0 0 0 2.695312,-5.529297 2.6951673,5.5297399 0 0 0 -2.695312,-5.53125 z m -9.9375,0.02734 a 2.6951673,5.5297399 0 0 0 -2.695313,5.529297 2.6951673,5.5297399 0 0 0 2.695313,5.53125 2.6951673,5.5297399 0 0 0 2.693359,-5.53125 A 2.6951673,5.5297399 0 0 0 20.029297,21.375 Z M 14.65625,37.736328 h 20.6875 L 30,47 H 20 Z" />  </g>
</svg>
