<?xml version="1.0" encoding="UTF-8" standalone="no"?>
<svg
   xmlns:dc="http://purl.org/dc/elements/1.1/"
   xmlns:cc="http://creativecommons.org/ns#"
   xmlns:rdf="http://www.w3.org/1999/02/22-rdf-syntax-ns#"
   xmlns:svg="http://www.w3.org/2000/svg"
   xmlns="http://www.w3.org/2000/svg"
   xmlns:sodipodi="http://sodipodi.sourceforge.net/DTD/sodipodi-0.dtd"
   xmlns:inkscape="http://www.inkscape.org/namespaces/inkscape"
   height="512"
   viewBox="0 0 512 512"
   width="512"
   version="1.1"
   id="svg51"
   sodipodi:docname="hombre-de-negocios.svg"
   inkscape:version="1.0.2-2 (e86c870879, 2021-01-15)">
  <metadata
     id="metadata57">
    <rdf:RDF>
      <cc:Work
         rdf:about="">
        <dc:format>image/svg+xml</dc:format>
        <dc:type
           rdf:resource="http://purl.org/dc/dcmitype/StillImage" />
      </cc:Work>
    </rdf:RDF>
  </metadata>
  <defs
     id="defs55" />
  <sodipodi:namedview
     pagecolor="#ffffff"
     bordercolor="#666666"
     borderopacity="1"
     objecttolerance="10"
     gridtolerance="10"
     guidetolerance="10"
     inkscape:pageopacity="0"
     inkscape:pageshadow="2"
     inkscape:window-width="1366"
     inkscape:window-height="705"
     id="namedview53"
     showgrid="false"
     showguides="true"
     inkscape:guide-bbox="true"
     inkscape:zoom="2.1015625"
     inkscape:cx="252.28646"
     inkscape:cy="273.25302"
     inkscape:window-x="-8"
     inkscape:window-y="-8"
     inkscape:window-maximized="1"
     inkscape:current-layer="svg51" />
  <g
     id="flat">
    <path
       d="m296 344 147.882 73.941a60 60 0 0 1 32.564 45.18l3.554 24.879h-448l3.554-24.879a60 60 0 0 1 32.564-45.18l147.882-73.941z"
       fill="#026ca2"
       id="path2" />
    <path
       d="m216 344h80v144h-80z"
       fill="#cbcbcb"
       id="path4" />
    <path
       d="m216 312v32l-8 24v8h96v-8l-8-24v-32z"
       fill="#fdc9a6"
       id="path6" />
    <path
       d="m296 312v19.64c-.08.06-.17.11-.25.17a70.9 70.9 0 0 1 -79.75-.17v-19.64z"
       fill="#fdc9a6"
       id="path8" />
    <path
       d="m296 312v19.64c-.08.06-.17.11-.25.17a70.9 70.9 0 0 1 -79.75-.17v-19.64z"
       fill="#e6af89"
       id="path10" />
    <path
       d="m72 488v-32a8 8 0 0 1 16 0v32z"
       fill="#015078"
       id="path12" />
    <path
       d="m424 488v-32a8 8 0 0 1 16 0v32z"
       fill="#015078"
       id="path14" />
    <path
       d="m230.857 388.571 9.143 27.429h32l9.143-27.429-25.143-12.571z"
       fill="#0296e5"
       id="path16" />
    <path
       d="m240 416-8 72h48l-8-72z"
       fill="#026ca2"
       id="path18" />
    <path
       d="m360.925 171.923 3.421-13.6a91.909 91.909 0 0 0 -19.565-82.485 84.136 84.136 0 0 0 -86.433-31.538c-5.306 1.236-10.592 2.465-15.636 3.637a76.04 76.04 0 0 0 -50.812 40.063h-2.124a43.754 43.754 0 0 0 -35 17.5 43.754 43.754 0 0 0 -8.311 32.44l5.435 38.06 2.913 24h197.187l6.585-20.007q1.315-3.993 2.34-8.07z"
       fill="#55300b"
       id="path20" />
    <path
       d="m256 328a70.9 70.9 0 0 1 -65.827-44.567 198.156 198.156 0 0 1 -14.173-73.596v-57.837l24-40.73a136.076 136.076 0 0 0 97.087 40.73h38.913v57.837a198.156 198.156 0 0 1 -14.173 73.6 70.9 70.9 0 0 1 -65.827 44.563z"
       fill="#fdc9a6"
       id="path22" />
    <g
       fill="#55300b"
       id="g32">
      <path
         d="m304 184h-24a8 8 0 0 1 0-16h24a8 8 0 0 1 0 16z"
         id="path24" />
      <circle
         cx="290"
         cy="202"
         r="10"
         id="circle26" />
      <path
         d="m232 184h-24a8 8 0 0 1 0-16h24a8 8 0 0 1 0 16z"
         id="path28" />
      <circle
         cx="222"
         cy="202"
         r="10"
         id="circle30" />
    </g>
    <path
       d="m264 248h-16a8 8 0 0 1 -8-8v-24a8 8 0 0 1 16 0v16h8a8 8 0 0 1 0 16z"
       fill="#e6af89"
       id="path36" />
    <path
       d="m176 176h-11.056a20.944 20.944 0 0 0 -20.944 20.944v14.112a20.944 20.944 0 0 0 2.211 9.366 20.944 20.944 0 0 0 18.733 11.578h14.056z"
       fill="#fdc9a6"
       id="path38" />
    <path
       d="m336 176h11.056a20.944 20.944 0 0 1 20.944 20.944v14.112a20.944 20.944 0 0 1 -2.211 9.366 20.944 20.944 0 0 1 -18.733 11.578h-14.056z"
       fill="#fdc9a6"
       id="path40" />
    <path
       d="m216 344 40 32-48 24v-32z"
       fill="#ebebeb"
       id="path42" />
    <path
       d="m296 344-40 32 48 24v-32z"
       fill="#ebebeb"
       id="path44" />
    <path
       d="m216 488h-40l-24-72 64-72z"
       fill="#0296e5"
       id="path46" />
    <path
       d="m296 488h40l24-72-64-72z"
       fill="#0296e5"
       id="path48" />
  </g>
  <path
     style="fill:none;fill-opacity:1;stroke:#e6af89;stroke-width:15;stroke-linecap:round;stroke-linejoin:miter;stroke-miterlimit:4;stroke-dasharray:none;stroke-opacity:1"
     d="m 285.04286,263.43449 c -6.91446,8.57945 -18.81574,10.03232 -29.06496,10.03232 -10.24922,0 -20.97287,-1.78934 -29.06496,-10.03232"
     id="path884-5"
     sodipodi:nodetypes="csc" />
</svg>
