<?xml version="1.0" encoding="UTF-8" standalone="no"?>
<svg
   xmlns:dc="http://purl.org/dc/elements/1.1/"
   xmlns:cc="http://creativecommons.org/ns#"
   xmlns:rdf="http://www.w3.org/1999/02/22-rdf-syntax-ns#"
   xmlns:svg="http://www.w3.org/2000/svg"
   xmlns="http://www.w3.org/2000/svg"
   xmlns:sodipodi="http://sodipodi.sourceforge.net/DTD/sodipodi-0.dtd"
   xmlns:inkscape="http://www.inkscape.org/namespaces/inkscape"
   height="661pt"
   viewBox="-20 -40 661.33331 661"
   width="661pt"
   version="1.1"
   id="svg20"
   sodipodi:docname="manufacture.svg"
   inkscape:version="1.0.2-2 (e86c870879, 2021-01-15)">
  <metadata
     id="metadata26">
    <rdf:RDF>
      <cc:Work
         rdf:about="">
        <dc:format>image/svg+xml</dc:format>
        <dc:type
           rdf:resource="http://purl.org/dc/dcmitype/StillImage" />
        <dc:title></dc:title>
      </cc:Work>
    </rdf:RDF>
  </metadata>
  <defs
     id="defs24" />
  <sodipodi:namedview
     pagecolor="#ffffff"
     bordercolor="#666666"
     borderopacity="1"
     objecttolerance="10"
     gridtolerance="10"
     guidetolerance="10"
     inkscape:pageopacity="0"
     inkscape:pageshadow="2"
     inkscape:window-width="1366"
     inkscape:window-height="705"
     id="namedview22"
     showgrid="false"
     showguides="true"
     inkscape:guide-bbox="true"
     inkscape:zoom="0.43164537"
     inkscape:cx="470.08629"
     inkscape:cy="548.55846"
     inkscape:window-x="-8"
     inkscape:window-y="-8"
     inkscape:window-maximized="1"
     inkscape:current-layer="svg20">
    <sodipodi:guide
       position="49.524962,615.82404"
       orientation="-1,0"
       id="guide851"
       inkscape:label=""
       inkscape:locked="false"
       inkscape:color="rgb(0,0,255)" />
    <sodipodi:guide
       position="23.468585,611.50001"
       orientation="0,1"
       id="guide853"
       inkscape:label=""
       inkscape:locked="false"
       inkscape:color="rgb(0,0,255)" />
  </sodipodi:namedview>
  <g
     id="g864"
     transform="matrix(0.93491679,0,0,0.93491679,20.175794,18.798115)">
    <path
       d="m 10,248.83203 h 55.476562 c 3.28125,11.83203 8.007813,23.21484 14.085938,33.88281 l -39.265625,39.25 c -1.875,1.875 -2.929687,4.41797 -2.929687,7.07422 0,2.65625 1.054687,5.19922 2.929687,7.07422 l 42.421875,42.43359 c 3.90625,3.89844 10.234375,3.89844 14.140625,0 l 39.269535,-39.27343 c 10.66796,6.07422 22.03906,10.80468 33.87109,14.08203 v 55.47656 c 0,5.52344 4.47656,10 10,10 h 60 c 5.52344,0 10,-4.47656 10,-10 v -55.47656 c 11.83203,-3.27735 23.20312,-8.00781 33.87109,-14.08203 l 39.26953,39.27343 c 3.96875,3.75 10.17579,3.75 14.14063,0 l 42.42969,-42.43359 c 1.875,-1.875 2.92968,-4.41797 2.92968,-7.07422 0,-2.65625 -1.05468,-5.19922 -2.92968,-7.07422 l -39.27344,-39.25 c 6.07812,-10.66797 10.80469,-22.05078 14.08594,-33.88281 H 410 c 5.52344,0 10,-4.47656 10,-10 v -60 c 0,-5.51953 -4.47656,-10 -10,-10 h -55.47656 c -3.28125,-11.82812 -8.00782,-23.21094 -14.08594,-33.87891 l 39.26562,-39.249995 c 1.875,-1.875 2.92969,-4.417969 2.92969,-7.074219 0,-2.65625 -1.05469,-5.199218 -2.92969,-7.074218 L 337.28125,39.121094 c -3.90625,-3.902344 -10.23438,-3.902344 -14.14063,0 L 283.87109,78.394531 C 273.20312,72.324219 261.82812,67.59375 250,64.3125 V 8.832031 c 0,-5.519531 -4.47656,-10 -10,-10 h -60 c -5.52344,0 -10,4.480469 -10,10 V 64.3125 c -11.82813,3.28125 -23.20313,8.011719 -33.87109,14.082031 L 96.859375,39.121094 c -3.96875,-3.75 -10.175781,-3.75 -14.140625,0 L 40.289062,81.554688 c -1.875,1.875 -2.929687,4.417968 -2.929687,7.074218 0,2.65625 1.054687,5.199219 2.929687,7.074219 L 79.5625,134.95312 c -6.078125,10.66797 -10.804688,22.05079 -14.085938,33.87891 H 10 c -5.523438,0 -10,4.48047 -10,10 v 60 c 0,5.52344 4.476562,10 10,10 z m 10,-60 h 53.300781 c 4.699219,0 8.765625,-3.26953 9.769531,-7.85937 3.28125,-14.97657 9.214844,-29.25 17.519528,-42.14063 2.53516,-3.95312 1.97266,-9.14453 -1.351559,-12.46875 L 61.5,88.625 89.789062,60.332031 127.51953,98.070312 C 130.84375,101.40234 136.03906,101.96484 140,99.425781 152.89453,91.125 167.16406,85.191406 182.14062,81.90625 186.72656,80.898438 190,76.832031 190,72.132812 V 18.832031 h 40 v 53.300781 c 0,4.699219 3.27344,8.765626 7.85937,9.773438 14.97657,3.285156 29.2461,9.21875 42.14063,17.519531 3.96094,2.539059 9.15625,1.976559 12.48047,-1.355469 L 330.21094,60.332031 358.49219,88.625 320.76172,126.35156 c -3.33203,3.32813 -3.89063,8.52344 -1.35156,12.48047 8.30468,12.89844 14.23046,27.16797 17.50781,42.14844 1.00781,4.58984 5.07422,7.86328 9.76953,7.86328 H 400 v 40 h -53.3125 c -4.69531,0 -8.76172,3.26953 -9.76953,7.85937 -3.27735,14.97657 -9.20703,29.2461 -17.50781,42.12891 -2.53516,3.95703 -1.97266,9.14844 1.35156,12.47266 L 358.5,329.03516 330.21094,357.33594 292.48047,319.59375 c -3.32422,-3.32812 -8.51953,-3.89062 -12.48047,-1.35156 -12.88672,8.30469 -27.15234,14.23828 -42.12891,17.51953 -4.59375,1 -7.87109,5.07031 -7.87109,9.76953 v 53.30078 h -40 v -53.30078 c 0,-4.69922 -3.27734,-8.76953 -7.87109,-9.76953 -14.97657,-3.28125 -29.24219,-9.21484 -42.12891,-17.51953 -3.96094,-2.53906 -9.15625,-1.97656 -12.48047,1.35156 L 89.789062,357.33594 61.507812,329.04297 99.238281,291.3125 c 3.332029,-3.32422 3.890629,-8.51953 1.351559,-12.48047 C 92.285156,265.9375 86.351562,251.66406 83.070312,236.68359 82.0625,232.09375 78,228.83203 73.300781,228.83203 H 20 Z m 0,0"
       id="path2" />
    <path
       d="m 210,288.83203 c 44.18359,0 80,-35.8125 80,-80 0,-44.18359 -35.81641,-80 -80,-80 -44.18359,0 -80,35.81641 -80,80 0.0469,44.16016 35.83984,79.95313 80,80 z m 0,-140 c 33.13281,0 60,26.86719 60,60 0,33.13672 -26.86719,60 -60,60 -33.13281,0 -60,-26.86328 -60,-60 0.0352,-33.125 26.875,-59.96484 60,-60 z m 0,0"
       id="path4" />
    <path
       d="m 210,318.83203 c 60.75,0 110,-49.24609 110,-110 0,-60.75 -49.25,-109.999999 -110,-109.999999 -60.75,0 -110,49.249999 -110,109.999999 0.0742,60.72266 49.27734,109.92969 110,110 z m 0,-200 c 49.70703,0 90,40.29297 90,90 0,49.70703 -40.29297,90 -90,90 -49.70703,0 -90,-40.29297 -90,-90 0.0547,-49.67969 40.31641,-89.94531 90,-90 z m 0,0"
       id="path6" />
    <path
       d="m 570,458.83203 v -80 c 0,-5.51953 -4.47656,-10 -10,-10 h -20 v -80 c 0,-5.51953 -4.47656,-10 -10,-10 h -90 c -5.52344,0 -10,4.48047 -10,10 v 80 h -50 c -5.52344,0 -10,4.48047 -10,10 v 80 H 50 c -27.601562,0.0352 -49.9648438,22.39844 -50,50 v 20 c 0.0351562,27.60547 22.398438,49.96875 50,50 h 520 c 27.60156,-0.0312 49.96484,-22.39453 50,-50 v -20 c -0.0352,-27.60156 -22.39844,-49.96484 -50,-50 z m -20,0 h -70 v -70 h 70 z m -100,-160 h 70 v 70 h -70 z m -60,90 h 70 v 70 h -70 z m 210,140 c 0,16.57031 -13.43359,30 -30,30 H 50 c -16.566406,0 -30,-13.42969 -30,-30 v -20 c 0,-16.56641 13.433594,-30 30,-30 h 520 c 16.56641,0 30,13.43359 30,30 z m 0,0"
       id="path8" />
    <path
       d="m 310,488.83203 c -16.56641,0 -30,13.43359 -30,30 0,16.57031 13.43359,30 30,30 16.56641,0 30,-13.42969 30,-30 0,-16.56641 -13.43359,-30 -30,-30 z m 0,40 c -5.52344,0 -10,-4.47656 -10,-10 0,-5.51953 4.47656,-10 10,-10 5.52344,0 10,4.48047 10,10 0,5.52344 -4.47656,10 -10,10 z m 0,0"
       id="path10" />
    <path
       d="m 210,488.83203 c -16.56641,0 -30,13.43359 -30,30 0,16.57031 13.43359,30 30,30 16.56641,0 30,-13.42969 30,-30 0,-16.56641 -13.43359,-30 -30,-30 z m 0,40 c -5.52344,0 -10,-4.47656 -10,-10 0,-5.51953 4.47656,-10 10,-10 5.52344,0 10,4.48047 10,10 0,5.52344 -4.47656,10 -10,10 z m 0,0"
       id="path12" />
    <path
       d="m 410,488.83203 c -16.56641,0 -30,13.43359 -30,30 0,16.57031 13.43359,30 30,30 16.56641,0 30,-13.42969 30,-30 0,-16.56641 -13.43359,-30 -30,-30 z m 0,40 c -5.52344,0 -10,-4.47656 -10,-10 0,-5.51953 4.47656,-10 10,-10 5.52344,0 10,4.48047 10,10 0,5.52344 -4.47656,10 -10,10 z m 0,0"
       id="path14" />
    <path
       d="m 110,488.83203 c -16.566406,0 -30,13.43359 -30,30 0,16.57031 13.433594,30 30,30 16.56641,0 30,-13.42969 30,-30 0,-16.56641 -13.43359,-30 -30,-30 z m 0,40 c -5.52344,0 -10,-4.47656 -10,-10 0,-5.51953 4.47656,-10 10,-10 5.52344,0 10,4.48047 10,10 0,5.52344 -4.47656,10 -10,10 z m 0,0"
       id="path16" />
    <path
       d="m 510,488.83203 c -16.56641,0 -30,13.43359 -30,30 0,16.57031 13.43359,30 30,30 16.56641,0 30,-13.42969 30,-30 0,-16.56641 -13.43359,-30 -30,-30 z m 0,40 c -5.52344,0 -10,-4.47656 -10,-10 0,-5.51953 4.47656,-10 10,-10 5.52344,0 10,4.48047 10,10 0,5.52344 -4.47656,10 -10,10 z m 0,0"
       id="path18" />
  </g>
</svg>
