<?xml version="1.0" encoding="UTF-8" standalone="no"?>
<svg
   xmlns:dc="http://purl.org/dc/elements/1.1/"
   xmlns:cc="http://creativecommons.org/ns#"
   xmlns:rdf="http://www.w3.org/1999/02/22-rdf-syntax-ns#"
   xmlns:svg="http://www.w3.org/2000/svg"
   xmlns="http://www.w3.org/2000/svg"
   xmlns:sodipodi="http://sodipodi.sourceforge.net/DTD/sodipodi-0.dtd"
   xmlns:inkscape="http://www.inkscape.org/namespaces/inkscape"
   viewBox="0 0 75 75"
   version="1.1"
   id="svg14"
   sodipodi:docname="mi-espacio.svg"
   width="75"
   height="75"
   inkscape:version="1.0.2-2 (e86c870879, 2021-01-15)">
  <metadata
     id="metadata20">
    <rdf:RDF>
      <cc:Work
         rdf:about="">
        <dc:format>image/svg+xml</dc:format>
        <dc:type
           rdf:resource="http://purl.org/dc/dcmitype/StillImage" />
        <dc:title />
      </cc:Work>
    </rdf:RDF>
  </metadata>
  <defs
     id="defs18" />
  <sodipodi:namedview
     pagecolor="#ffffff"
     bordercolor="#666666"
     borderopacity="1"
     objecttolerance="10"
     gridtolerance="10"
     guidetolerance="10"
     inkscape:pageopacity="0"
     inkscape:pageshadow="2"
     inkscape:window-width="1366"
     inkscape:window-height="705"
     id="namedview16"
     showgrid="false"
     inkscape:zoom="5.9441164"
     inkscape:cx="50.445477"
     inkscape:cy="36.533767"
     inkscape:window-x="-8"
     inkscape:window-y="-8"
     inkscape:window-maximized="1"
     inkscape:current-layer="svg14"
     inkscape:document-rotation="0" />
  <path
     d="m 57.710713,28.045398 c -7.741722,0 -14.017717,-6.275995 -14.017717,-14.017717 0,-7.7417218 6.275995,-14.01771628 14.017717,-14.01771628 7.741722,0 14.017716,6.27599448 14.017716,14.01771628 0,7.741722 -6.275994,14.017717 -14.017716,14.017717 z m 0,-24.9204338 c -6.021486,0 -10.902717,4.8813777 -10.902717,10.9027168 0,6.02134 4.881231,10.902717 10.902717,10.902717 6.021485,0 10.902571,-4.881377 10.902571,-10.902717 0,-6.0213391 -4.881232,-10.9027168 -10.902571,-10.9027168 z"
     id="path16"
     style="stroke-width:0.146018;fill:#ffffff;fill-opacity:1" />
  <path
     d="m 31.232706,21.815253 c -5.161148,0 -9.345144,-4.183997 -9.345144,-9.345145 0,-5.1611475 4.183996,-9.3451438 9.345144,-9.3451438 5.161148,0 9.345145,4.1839963 9.345145,9.3451438 0,5.161148 -4.183851,9.345145 -9.345145,9.345145 z m 0,-15.5751434 c -3.440765,0 -6.230145,2.7893796 -6.230145,6.2301444 0,3.440766 2.78938,6.229999 6.230145,6.229999 3.440766,0 6.230145,-2.789379 6.230145,-6.230145 0,-3.4407648 -2.789379,-6.2299984 -6.230145,-6.2299984 z"
     id="path18"
     style="stroke-width:0.146018;fill:#ffffff;fill-opacity:1" />
  <path
     d="m 10.984991,21.815253 c -4.3009567,0 -7.7875716,-3.486615 -7.7875716,-7.787572 0,-4.3009565 3.4866149,-7.7875714 7.7875716,-7.7875714 4.300957,0 7.787572,3.4866149 7.787572,7.7875714 0,4.300957 -3.486615,7.787572 -7.787572,7.787572 z m 0,-12.460144 c -2.580574,0 -4.6725722,2.091998 -4.6725722,4.672572 0,2.580574 2.0919982,4.672572 4.6725722,4.672572 2.580574,0 4.672572,-2.091998 4.672572,-4.672572 0,-2.580574 -2.091998,-4.672572 -4.672572,-4.672572 z"
     id="path20"
     style="stroke-width:0.146018;fill:#ffffff;fill-opacity:1" />
  <path
     d="M 20.330135,52.965831 H 1.6398467 c -0.86019138,0 -1.55757277,-0.697381 -1.55757277,-1.557573 V 35.832969 c 0,-6.021339 4.88123167,-10.902717 10.90271707,-10.902717 6.021485,0 10.902717,4.881232 10.902717,10.902717 v 15.575289 c -1.46e-4,0.860192 -0.697381,1.557573 -1.557573,1.557573 z M 3.1972734,49.850686 H 18.772563 V 35.832969 c 0,-4.300956 -3.486615,-7.787571 -7.787572,-7.787571 -4.3009567,0 -7.7875716,3.486615 -7.7875716,7.787571 v 14.017717 z"
     id="path22"
     style="stroke-width:0.146018;fill:#ffffff;fill-opacity:1" />
  <path
     d="M 42.135423,62.310976 H 20.330135 c -0.860191,0 -1.557572,-0.697382 -1.557572,-1.557573 V 37.390542 c 0,-6.881531 5.578613,-12.460144 12.460143,-12.460144 6.881531,0 12.460144,5.578613 12.460144,12.460144 v 23.362861 c 1.46e-4,0.860191 -0.697235,1.557573 -1.557427,1.557573 z M 21.887562,59.19583 H 40.577851 V 37.390542 c 0,-5.161148 -4.183997,-9.345144 -9.345145,-9.345144 -5.161148,0 -9.345144,4.183996 -9.345144,9.345144 z"
     id="path24"
     style="stroke-width:0.146018;fill:#ffffff;fill-opacity:1" />
  <path
     d="M 73.285856,74.771119 H 42.135423 c -0.860191,0 -1.557572,-0.697381 -1.557572,-1.557572 V 48.293259 c 0,-9.462105 7.670611,-17.132716 17.132716,-17.132716 9.462104,0 17.132861,7.670465 17.132861,17.132716 v 24.920434 c 0,0.860045 -0.697381,1.557426 -1.557572,1.557426 z M 43.692996,71.65612 H 71.728429 V 48.293259 c 0,-7.741722 -6.275994,-14.017716 -14.017716,-14.017716 -7.741722,0 -14.017717,6.275994 -14.017717,14.017716 z"
     id="path26"
     style="stroke-width:0.146018;fill:#ffffff;fill-opacity:1" />
</svg>
