<?xml version="1.0" encoding="UTF-8" standalone="no"?>
<svg
   xmlns:dc="http://purl.org/dc/elements/1.1/"
   xmlns:cc="http://creativecommons.org/ns#"
   xmlns:rdf="http://www.w3.org/1999/02/22-rdf-syntax-ns#"
   xmlns:svg="http://www.w3.org/2000/svg"
   xmlns="http://www.w3.org/2000/svg"
   xmlns:sodipodi="http://sodipodi.sourceforge.net/DTD/sodipodi-0.dtd"
   xmlns:inkscape="http://www.inkscape.org/namespaces/inkscape"
   id="_x31__px"
   enable-background="new 0 0 24 24"
   height="75"
   viewBox="0 0 3.515625 3.515625"
   width="75"
   version="1.1"
   sodipodi:docname="plague.svg"
   inkscape:version="1.0.1 (3bc2e813f5, 2020-09-07)">
  <metadata
     id="metadata21">
    <rdf:RDF>
      <cc:Work
         rdf:about="">
        <dc:format>image/svg+xml</dc:format>
        <dc:type
           rdf:resource="http://purl.org/dc/dcmitype/StillImage" />
        <dc:title></dc:title>
      </cc:Work>
    </rdf:RDF>
  </metadata>
  <defs
     id="defs19" />
  <sodipodi:namedview
     pagecolor="#ffffff"
     bordercolor="#666666"
     borderopacity="1"
     objecttolerance="10"
     gridtolerance="10"
     guidetolerance="10"
     inkscape:pageopacity="0"
     inkscape:pageshadow="2"
     inkscape:window-width="1360"
     inkscape:window-height="705"
     id="namedview17"
     showgrid="false"
     inkscape:zoom="4.203125"
     inkscape:cx="10.071149"
     inkscape:cy="49.165283"
     inkscape:window-x="-8"
     inkscape:window-y="-8"
     inkscape:window-maximized="1"
     inkscape:current-layer="_x31__px" />
  <g
     id="g853"
     transform="matrix(0.14655058,0,0,0.14655058,-0.00201885,0)"
     style="fill:#ffffff;fill-opacity:1">
    <path
       d="M 22,24 H 10.5 C 10.224,24 10,23.776 10,23.5 10,23.224 10.224,23 10.5,23 H 22 c 0.551,0 1,-0.449 1,-1 0,-0.551 -0.449,-1 -1,-1 H 21.5 C 21.224,21 21,20.776 21,20.5 21,20.224 21.224,20 21.5,20 H 22 c 1.103,0 2,0.897 2,2 0,1.103 -0.897,2 -2,2 z"
       id="path2"
       style="fill:#ffffff;fill-opacity:1" />
    <path
       d="M 21.5,21 H 1 C 0.664,21 0.353,20.833 0.167,20.554 -0.022,20.269 -0.055,19.91 0.079,19.595 0.7,18.163 1.707,16.754 2.999,15.506 V 12.5 C 3,12.224 3.224,12 3.5,12 c 0.933,0 1.812,0.364 2.474,1.026 0.038,0.038 0.075,0.076 0.111,0.116 C 6.672,12.793 7.295,12.476 7.944,12.2 8.198,12.091 8.492,12.21 8.6,12.464 8.708,12.718 8.59,13.012 8.336,13.12 7.594,13.436 6.889,13.807 6.239,14.221 6.009,14.368 5.705,14.304 5.554,14.077 5.472,13.954 5.373,13.839 5.266,13.733 4.914,13.381 4.476,13.146 4,13.05 v 2.67 c 0,0.138 -0.057,0.27 -0.158,0.365 -1.27,1.192 -2.253,2.542 -2.844,3.904 L 20.992,20 c -0.069,-2.118 -0.584,-3.912 -1.5,-5.211 -0.159,-0.226 -0.105,-0.538 0.121,-0.697 0.225,-0.159 0.539,-0.105 0.697,0.121 C 21.431,15.805 22,17.92 22,20.5 22,20.776 21.776,21 21.5,21 Z"
       id="path4"
       style="fill:#ffffff;fill-opacity:1" />
    <path
       d="M 11.5,21 C 11.224,21 11,20.776 11,20.5 11,18.019 13.019,16 15.5,16 h 1 c 0.276,0 0.5,0.224 0.5,0.5 0,0.276 -0.224,0.5 -0.5,0.5 h -1 C 13.57,17 12,18.57 12,20.5 12,20.776 11.776,21 11.5,21 Z"
       id="path6"
       style="fill:#ffffff;fill-opacity:1" />
    <path
       d="m 6,18 c -0.551,0 -1,-0.449 -1,-1 0,-0.551 0.449,-1 1,-1 0.551,0 1,0.449 1,1 0,0.551 -0.449,1 -1,1 z"
       id="path8"
       style="fill:#ffffff;fill-opacity:1" />
    <path
       d="m 22.5,12 h -11 C 10.673,12 10,11.327 10,10.5 10,10.208 10.081,9.932 10.234,9.702 L 15.723,0.719 C 15.981,0.279 16.472,0 17,0 c 0.528,0 1.019,0.279 1.282,0.727 l 5.495,8.992 C 23.919,9.932 24,10.208 24,10.5 24,11.327 23.327,12 22.5,12 Z M 17,1 c -0.174,0 -0.334,0.089 -0.418,0.233 l -5.505,9.008 C 11.023,10.322 11,10.406 11,10.5 c 0,0.276 0.224,0.5 0.5,0.5 h 11 c 0.276,0 0.5,-0.224 0.5,-0.5 0,-0.094 -0.023,-0.178 -0.066,-0.242 L 17.423,1.241 C 17.334,1.089 17.174,1 17,1 Z"
       id="path10"
       style="fill:#ffffff;fill-opacity:1" />
    <path
       d="M 17,8 C 16.724,8 16.5,7.776 16.5,7.5 v -4 C 16.5,3.224 16.724,3 17,3 c 0.276,0 0.5,0.224 0.5,0.5 v 4 C 17.5,7.776 17.276,8 17,8 Z"
       id="path12"
       style="fill:#ffffff;fill-opacity:1" />
    <circle
       cx="17"
       cy="9.5"
       r="0.5"
       id="circle14"
       style="fill:#ffffff;fill-opacity:1" />
  </g>
</svg>
