<?xml version="1.0" encoding="UTF-8" standalone="no"?>
<svg
   xmlns:dc="http://purl.org/dc/elements/1.1/"
   xmlns:cc="http://creativecommons.org/ns#"
   xmlns:rdf="http://www.w3.org/1999/02/22-rdf-syntax-ns#"
   xmlns:svg="http://www.w3.org/2000/svg"
   xmlns="http://www.w3.org/2000/svg"
   xmlns:sodipodi="http://sodipodi.sourceforge.net/DTD/sodipodi-0.dtd"
   xmlns:inkscape="http://www.inkscape.org/namespaces/inkscape"
   version="1.1"
   id="Capa_1"
   x="0px"
   y="0px"
   viewBox="0 0 511 511"
   style="enable-background:new 0 0 511 511;"
   xml:space="preserve"
   sodipodi:docname="school.svg"
   inkscape:version="1.0.2-2 (e86c870879, 2021-01-15)"><metadata
   id="metadata61"><rdf:RDF><cc:Work
       rdf:about=""><dc:format>image/svg+xml</dc:format><dc:type
         rdf:resource="http://purl.org/dc/dcmitype/StillImage" /><dc:title></dc:title></cc:Work></rdf:RDF></metadata><defs
   id="defs59" /><sodipodi:namedview
   pagecolor="#ffffff"
   bordercolor="#666666"
   borderopacity="1"
   objecttolerance="10"
   gridtolerance="10"
   guidetolerance="10"
   inkscape:pageopacity="0"
   inkscape:pageshadow="2"
   inkscape:window-width="1366"
   inkscape:window-height="705"
   id="namedview57"
   showgrid="false"
   showguides="true"
   inkscape:guide-bbox="true"
   inkscape:zoom="1.0528376"
   inkscape:cx="248.40113"
   inkscape:cy="238.22119"
   inkscape:window-x="-8"
   inkscape:window-y="-8"
   inkscape:window-maximized="1"
   inkscape:current-layer="Capa_1"><sodipodi:guide
     position="51,541.89452"
     orientation="-1,0"
     id="guide886"
     inkscape:label=""
     inkscape:locked="false"
     inkscape:color="rgb(0,0,255)" /><sodipodi:guide
     position="-29.55128,460"
     orientation="0,1"
     id="guide888"
     inkscape:label=""
     inkscape:locked="false"
     inkscape:color="rgb(0,0,255)" /></sodipodi:namedview>
<g
   id="g24"
   transform="matrix(0.87267482,0,0,0.87267482,32.531583,32.531583)">
	<path
   d="M 503.5,476 H 487 V 267 h 16.5 c 2.737,0 5.257,-1.491 6.575,-3.891 1.317,-2.4 1.222,-5.327 -0.247,-7.636 l -56,-88 c -1.377,-2.164 -3.763,-3.474 -6.328,-3.474 H 298.606 L 263,128.394 V 99 h 72.5 c 2.766,0 5.308,-1.522 6.613,-3.961 1.305,-2.438 1.162,-5.398 -0.373,-7.699 L 328.514,67.5 341.741,47.66 c 1.535,-2.301 1.677,-5.261 0.373,-7.699 C 340.808,37.522 338.266,36 335.5,36 H 263 v -8.5 c 0,-4.142 -3.358,-7.5 -7.5,-7.5 -4.142,0 -7.5,3.358 -7.5,7.5 V 128.394 L 212.394,164 H 63.5 c -2.564,0 -4.951,1.31 -6.328,3.474 l -56,88 c -1.469,2.309 -1.564,5.236 -0.247,7.636 C 2.243,265.509 4.763,267 7.5,267 H 24 V 476 H 7.5 c -4.142,0 -7.5,3.358 -7.5,7.5 0,4.142 3.358,7.5 7.5,7.5 h 496 c 4.142,0 7.5,-3.358 7.5,-7.5 0,-4.142 -3.358,-7.5 -7.5,-7.5 z m -60.117,-297 46.455,73 H 386.606 l -73,-73 z M 321.486,51 313.259,63.34 c -1.68,2.519 -1.68,5.801 0,8.32 L 321.486,84 H 263 V 51 Z M 67.617,179 h 129.776 l -73,73 H 21.163 Z M 39,267 h 88.498 c 0.248,0 0.496,-0.013 0.744,-0.038 0.106,-0.01 0.21,-0.03 0.315,-0.045 0.137,-0.02 0.274,-0.036 0.411,-0.063 0.122,-0.024 0.24,-0.058 0.36,-0.088 0.117,-0.029 0.235,-0.056 0.351,-0.09 0.118,-0.036 0.233,-0.081 0.349,-0.122 0.115,-0.041 0.23,-0.079 0.344,-0.126 0.109,-0.045 0.213,-0.098 0.319,-0.148 0.115,-0.055 0.232,-0.106 0.345,-0.167 0.103,-0.055 0.2,-0.118 0.3,-0.177 0.11,-0.065 0.222,-0.128 0.329,-0.2 0.112,-0.075 0.217,-0.158 0.324,-0.239 0.088,-0.066 0.179,-0.127 0.264,-0.198 0.192,-0.157 0.376,-0.323 0.551,-0.499 L 255.5,142.106 378.196,264.801 c 0.175,0.175 0.36,0.341 0.551,0.499 0.085,0.07 0.175,0.131 0.263,0.197 0.108,0.081 0.214,0.165 0.326,0.24 0.106,0.071 0.217,0.133 0.326,0.198 0.101,0.061 0.199,0.124 0.303,0.179 0.112,0.06 0.227,0.111 0.342,0.165 0.107,0.051 0.213,0.104 0.323,0.15 0.112,0.046 0.226,0.083 0.339,0.124 0.117,0.042 0.233,0.087 0.353,0.124 0.114,0.035 0.23,0.06 0.345,0.089 0.122,0.031 0.242,0.065 0.366,0.089 0.132,0.026 0.265,0.042 0.398,0.061 0.109,0.016 0.217,0.036 0.328,0.047 0.246,0.024 0.493,0.037 0.74,0.037 H 472 V 476 H 311 V 371.5 C 311,358.542 300.458,348 287.5,348 h -64 C 210.542,348 200,358.542 200,371.5 V 476 H 39 Z m 257,113 h -81 v -8.5 c 0,-4.687 3.813,-8.5 8.5,-8.5 h 64 c 4.687,0 8.5,3.813 8.5,8.5 z m -81,15 h 33 v 81 h -33 z m 48,0 h 33 v 81 h -33 z"
   id="path2" />
	<path
   d="m 255.5,323 c 30.603,0 55.5,-24.897 55.5,-55.5 0,-30.603 -24.897,-55.5 -55.5,-55.5 -30.603,0 -55.5,24.897 -55.5,55.5 0,30.603 24.897,55.5 55.5,55.5 z m 0,-96 c 22.332,0 40.5,18.168 40.5,40.5 0,22.332 -18.168,40.5 -40.5,40.5 -22.332,0 -40.5,-18.168 -40.5,-40.5 0,-22.332 18.168,-40.5 40.5,-40.5 z"
   id="path4" />
	<path
   d="m 255.5,275 c 4.142,0 7.5,-3.358 7.5,-7.5 v -24 c 0,-4.142 -3.358,-7.5 -7.5,-7.5 -4.142,0 -7.5,3.358 -7.5,7.5 V 260 h -16.5 c -4.142,0 -7.5,3.358 -7.5,7.5 0,4.142 3.358,7.5 7.5,7.5 z"
   id="path6" />
	<path
   d="m 175.5,388 h -40 c -4.142,0 -7.5,3.358 -7.5,7.5 v 48 c 0,4.142 3.358,7.5 7.5,7.5 h 40 c 4.142,0 7.5,-3.358 7.5,-7.5 v -48 c 0,-4.142 -3.358,-7.5 -7.5,-7.5 z m -7.5,15 v 9 h -25 v -9 z m -25,33 v -9 h 25 v 9 z"
   id="path8" />
	<path
   d="m 103.5,388 h -40 c -4.142,0 -7.5,3.358 -7.5,7.5 v 48 c 0,4.142 3.358,7.5 7.5,7.5 h 40 c 4.142,0 7.5,-3.358 7.5,-7.5 v -48 c 0,-4.142 -3.358,-7.5 -7.5,-7.5 z M 96,403 v 9 H 71 v -9 z m -25,33 v -9 h 25 v 9 z"
   id="path10" />
	<path
   d="m 173,292 h -35 c -5.514,0 -10,4.486 -10,10 v 53.5 c 0,4.142 3.358,7.5 7.5,7.5 h 40 c 4.142,0 7.5,-3.358 7.5,-7.5 V 302 c 0,-5.514 -4.486,-10 -10,-10 z m -5,15 v 17 h -25 v -17 z m -25,41 v -9 h 25 v 9 z"
   id="path12" />
	<path
   d="M 101,292 H 66 c -5.514,0 -10,4.486 -10,10 v 53.5 c 0,4.142 3.358,7.5 7.5,7.5 h 40 c 4.142,0 7.5,-3.358 7.5,-7.5 V 302 c 0,-5.514 -4.486,-10 -10,-10 z m -5,15 v 17 H 71 v -17 z m -25,41 v -9 h 25 v 9 z"
   id="path14" />
	<path
   d="m 407.5,451 h 40 c 4.142,0 7.5,-3.358 7.5,-7.5 v -48 c 0,-4.142 -3.358,-7.5 -7.5,-7.5 h -40 c -4.142,0 -7.5,3.358 -7.5,7.5 v 48 c 0,4.142 3.358,7.5 7.5,7.5 z m 7.5,-15 v -9 h 25 v 9 z m 25,-33 v 9 h -25 v -9 z"
   id="path16" />
	<path
   d="m 335.5,451 h 40 c 4.142,0 7.5,-3.358 7.5,-7.5 v -48 c 0,-4.142 -3.358,-7.5 -7.5,-7.5 h -40 c -4.142,0 -7.5,3.358 -7.5,7.5 v 48 c 0,4.142 3.358,7.5 7.5,7.5 z m 7.5,-15 v -9 h 25 v 9 z m 25,-33 v 9 h -25 v -9 z"
   id="path18" />
	<path
   d="m 407.5,363 h 40 c 4.142,0 7.5,-3.358 7.5,-7.5 V 302 c 0,-5.514 -4.486,-10 -10,-10 h -35 c -5.514,0 -10,4.486 -10,10 v 53.5 c 0,4.142 3.358,7.5 7.5,7.5 z m 7.5,-15 v -9 h 25 v 9 z m 25,-41 v 17 h -25 v -17 z"
   id="path20" />
	<path
   d="m 335.5,363 h 40 c 4.142,0 7.5,-3.358 7.5,-7.5 V 302 c 0,-5.514 -4.486,-10 -10,-10 h -35 c -5.514,0 -10,4.486 -10,10 v 53.5 c 0,4.142 3.358,7.5 7.5,7.5 z m 7.5,-15 v -9 h 25 v 9 z m 25,-41 v 17 h -25 v -17 z"
   id="path22" />
</g>
<g
   id="g26">
</g>
<g
   id="g28">
</g>
<g
   id="g30">
</g>
<g
   id="g32">
</g>
<g
   id="g34">
</g>
<g
   id="g36">
</g>
<g
   id="g38">
</g>
<g
   id="g40">
</g>
<g
   id="g42">
</g>
<g
   id="g44">
</g>
<g
   id="g46">
</g>
<g
   id="g48">
</g>
<g
   id="g50">
</g>
<g
   id="g52">
</g>
<g
   id="g54">
</g>
</svg>
