<?xml version="1.0" encoding="UTF-8" standalone="no"?>
<svg
   xmlns:dc="http://purl.org/dc/elements/1.1/"
   xmlns:cc="http://creativecommons.org/ns#"
   xmlns:rdf="http://www.w3.org/1999/02/22-rdf-syntax-ns#"
   xmlns:svg="http://www.w3.org/2000/svg"
   xmlns="http://www.w3.org/2000/svg"
   xmlns:sodipodi="http://sodipodi.sourceforge.net/DTD/sodipodi-0.dtd"
   xmlns:inkscape="http://www.inkscape.org/namespaces/inkscape"
   viewBox="0 0 74 74"
   width="512"
   height="512"
   version="1.1"
   id="svg88"
   sodipodi:docname="shop.svg"
   inkscape:version="1.0.2-2 (e86c870879, 2021-01-15)">
  <metadata
     id="metadata94">
    <rdf:RDF>
      <cc:Work
         rdf:about="">
        <dc:format>image/svg+xml</dc:format>
        <dc:type
           rdf:resource="http://purl.org/dc/dcmitype/StillImage" />
        <dc:title></dc:title>
      </cc:Work>
    </rdf:RDF>
  </metadata>
  <defs
     id="defs92" />
  <sodipodi:namedview
     pagecolor="#ffffff"
     bordercolor="#666666"
     borderopacity="1"
     objecttolerance="10"
     gridtolerance="10"
     guidetolerance="10"
     inkscape:pageopacity="0"
     inkscape:pageshadow="2"
     inkscape:window-width="1366"
     inkscape:window-height="705"
     id="namedview90"
     showgrid="false"
     showguides="true"
     inkscape:guide-bbox="true"
     inkscape:zoom="0.52539063"
     inkscape:cx="248.40289"
     inkscape:cy="182.5498"
     inkscape:window-x="-8"
     inkscape:window-y="-8"
     inkscape:window-maximized="1"
     inkscape:current-layer="svg88">
    <sodipodi:guide
       position="7.3710938,68.910781"
       orientation="-1,0"
       id="guide919"
       inkscape:label=""
       inkscape:locked="false"
       inkscape:color="rgb(0,0,255)" />
    <sodipodi:guide
       position="5.6394052,66.628906"
       orientation="0,1"
       id="guide921"
       inkscape:label=""
       inkscape:locked="false"
       inkscape:color="rgb(0,0,255)" />
  </sodipodi:namedview>
  <g
     id="_2_PT"
     data-name="2 PT"
     transform="matrix(0.85068687,0,0,0.85068687,5.5245857,5.7485555)">
    <path
       d="M 71,22 H 3 A 1,1 0 0 1 2.092,20.581 l 6,-13 A 1,1 0 0 1 9,7 h 56 a 1,1 0 0 1 0.908,0.581 l 6,13 A 1,1 0 0 1 71,22 Z M 4.563,20 H 69.437 L 64.36,9 H 9.64 Z"
       id="path65" />
    <path
       d="M 7.857,34 A 5.864,5.864 0 0 1 2,28.143 V 21 a 1,1 0 0 1 1,-1 h 9.714 a 1,1 0 0 1 1,1 v 7.143 A 5.864,5.864 0 0 1 7.857,34 Z M 4,22 v 6.143 a 3.857,3.857 0 0 0 7.714,0 V 22 Z"
       id="path67" />
    <path
       d="M 17.571,34 A 5.864,5.864 0 0 1 11.714,28.143 V 21 a 1,1 0 0 1 1,-1 h 9.714 a 1,1 0 0 1 1,1 v 7.143 A 5.864,5.864 0 0 1 17.571,34 Z M 13.714,22 v 6.143 a 3.857,3.857 0 0 0 7.714,0 V 22 Z"
       id="path69" />
    <path
       d="M 27.286,34 A 5.864,5.864 0 0 1 21.429,28.143 V 21 a 1,1 0 0 1 1,-1 h 9.714 a 1,1 0 0 1 1,1 v 7.143 A 5.864,5.864 0 0 1 27.286,34 Z M 23.429,22 v 6.143 a 3.857,3.857 0 0 0 7.714,0 V 22 Z"
       id="path71" />
    <path
       d="M 37,34 A 5.864,5.864 0 0 1 31.143,28.143 V 21 a 1,1 0 0 1 1,-1 h 9.714 a 1,1 0 0 1 1,1 v 7.143 A 5.864,5.864 0 0 1 37,34 Z M 33.143,22 v 6.143 a 3.857,3.857 0 0 0 7.714,0 V 22 Z"
       id="path73" />
    <path
       d="M 46.714,34 A 5.864,5.864 0 0 1 40.857,28.143 V 21 a 1,1 0 0 1 1,-1 h 9.714 a 1,1 0 0 1 1,1 v 7.143 A 5.864,5.864 0 0 1 46.714,34 Z M 42.857,22 v 6.143 a 3.857,3.857 0 0 0 7.714,0 V 22 Z"
       id="path75" />
    <path
       d="M 56.429,34 A 5.864,5.864 0 0 1 50.572,28.143 V 21 a 1,1 0 0 1 1,-1 h 9.714 a 1,1 0 0 1 1,1 v 7.143 A 5.864,5.864 0 0 1 56.429,34 Z M 52.571,22 v 6.143 a 3.857,3.857 0 0 0 7.714,0 V 22 Z"
       id="path77" />
    <path
       d="M 66.143,34 A 5.864,5.864 0 0 1 60.286,28.143 V 21 a 1,1 0 0 1 1,-1 H 71 a 1,1 0 0 1 1,1 v 7.143 A 5.864,5.864 0 0 1 66.143,34 Z M 62.286,22 v 6.143 a 3.857,3.857 0 0 0 7.714,0 V 22 Z"
       id="path79" />
    <path
       d="M 68,70 H 5.91 a 1,1 0 0 1 -1,-1 V 32 h 2 V 68 H 67 V 32 h 2 v 37 a 1,1 0 0 1 -1,1 z"
       id="path81" />
    <path
       d="M 60,70 H 43 A 1,1 0 0 1 42,69 V 41 a 1,1 0 0 1 1,-1 h 17 a 1,1 0 0 1 1,1 v 28 a 1,1 0 0 1 -1,1 z M 44,68 H 59 V 42 H 44 Z"
       id="path83" />
    <path
       d="M 37,61.5 H 12 a 1,1 0 0 1 -1,-1 v -20 a 1,1 0 0 1 1,-1 h 25 a 1,1 0 0 1 1,1 v 20 a 1,1 0 0 1 -1,1 z m -24,-2 h 23 v -18 H 13 Z"
       id="path85" />
  </g>
</svg>
