<?xml version="1.0" encoding="UTF-8" standalone="no"?>
<svg
   xmlns:dc="http://purl.org/dc/elements/1.1/"
   xmlns:cc="http://creativecommons.org/ns#"
   xmlns:rdf="http://www.w3.org/1999/02/22-rdf-syntax-ns#"
   xmlns:svg="http://www.w3.org/2000/svg"
   xmlns="http://www.w3.org/2000/svg"
   xmlns:sodipodi="http://sodipodi.sourceforge.net/DTD/sodipodi-0.dtd"
   xmlns:inkscape="http://www.inkscape.org/namespaces/inkscape"
   version="1.1"
   id="Capa_1"
   x="0px"
   y="0px"
   viewBox="0 0 496 496"
   style="enable-background:new 0 0 496 496;"
   xml:space="preserve"
   sodipodi:docname="transferencia.svg"
   inkscape:version="1.0.2-2 (e86c870879, 2021-01-15)"><metadata
   id="metadata75"><rdf:RDF><cc:Work
       rdf:about=""><dc:format>image/svg+xml</dc:format><dc:type
         rdf:resource="http://purl.org/dc/dcmitype/StillImage" /></cc:Work></rdf:RDF></metadata><defs
   id="defs73" /><sodipodi:namedview
   pagecolor="#ffffff"
   bordercolor="#666666"
   borderopacity="1"
   objecttolerance="10"
   gridtolerance="10"
   guidetolerance="10"
   inkscape:pageopacity="0"
   inkscape:pageshadow="2"
   inkscape:window-width="1366"
   inkscape:window-height="705"
   id="namedview71"
   showgrid="false"
   showguides="true"
   inkscape:guide-bbox="true"
   inkscape:zoom="0.76698276"
   inkscape:cx="245.9941"
   inkscape:cy="215.66104"
   inkscape:window-x="-8"
   inkscape:window-y="-8"
   inkscape:window-maximized="1"
   inkscape:current-layer="Capa_1"><sodipodi:guide
     position="50,525.98764"
     orientation="-1,0"
     id="guide900"
     inkscape:label=""
     inkscape:locked="false"
     inkscape:color="rgb(0,0,255)" /><sodipodi:guide
     position="-43.025739,446"
     orientation="0,1"
     id="guide902"
     inkscape:label=""
     inkscape:locked="false"
     inkscape:color="rgb(0,0,255)" /></sodipodi:namedview>
<g
   id="g38"
   transform="matrix(0.7983871,0,0,0.7983871,50,50)">
	<g
   id="g36">
		<g
   id="g34">
			<path
   d="m 360,240 c 0,-61.76 -50.24,-112 -112,-112 -61.76,0 -112,50.24 -112,112 0,61.76 50.24,112 112,112 61.76,0 112,-50.24 112,-112 z m -112,96 c -52.936,0 -96,-43.064 -96,-96 0,-52.936 43.064,-96 96,-96 52.936,0 96,43.064 96,96 0,52.936 -43.064,96 -96,96 z"
   id="path2" />
			<path
   d="M 256,176.408 V 160 h -16 v 16.408 c -17.952,2.016 -32,17.112 -32,35.592 0,19.848 16.152,36 36,36 h 8 c 11.032,0 20,8.968 20,20 0,11.032 -8.968,20 -20,20 h -8 c -11.032,0 -20,-8.968 -20,-20 v -4 h -16 v 4 c 0,18.48 14.048,33.576 32,35.592 V 320 h 16 v -16.408 c 17.952,-2.016 32,-17.112 32,-35.592 0,-19.848 -16.152,-36 -36,-36 h -8 c -11.032,0 -20,-8.968 -20,-20 0,-11.032 8.968,-20 20,-20 h 8 c 11.032,0 20,8.968 20,20 v 4 h 16 v -4 c 0,-18.48 -14.048,-33.576 -32,-35.592 z"
   id="path4" />
			<path
   d="m 16,64 h 208 v 48 h 16 V 40 C 240,17.944 222.056,0 200,0 H 40 C 17.944,0 0,17.944 0,40 V 352 H 16 Z M 16,40 C 16,26.768 26.768,16 40,16 h 160 c 13.232,0 24,10.768 24,24 v 8 H 16 Z"
   id="path6" />
			<rect
   x="80"
   y="400"
   width="80"
   height="16"
   id="rect8" />
			<path
   d="m 0,408 c 0,22.056 17.944,40 40,40 h 160 c 22.056,0 40,-17.944 40,-40 V 368 H 0 Z m 16,-24 h 208 v 24 c 0,13.232 -10.768,24 -24,24 H 40 C 26.768,432 16,421.232 16,408 Z"
   id="path10" />
			<path
   d="M 456,48 H 296 c -22.056,0 -40,17.944 -40,40 v 24 h 8 8 208 v 288 h 16 V 88 C 496,65.944 478.056,48 456,48 Z m 24,48 H 272 v -8 c 0,-13.232 10.768,-24 24,-24 h 160 c 13.232,0 24,10.768 24,24 z"
   id="path12" />
			<rect
   x="336"
   y="448"
   width="80"
   height="16"
   id="rect14" />
			<path
   d="m 272,368 h -16 v 88 c 0,22.056 17.944,40 40,40 h 160 c 22.056,0 40,-17.944 40,-40 V 416 H 272 Z m 208,64 v 24 c 0,13.232 -10.768,24 -24,24 H 296 c -13.232,0 -24,-10.768 -24,-24 v -24 z"
   id="path16" />
			<polygon
   points="376,272 400,272 400,328 466,240 400,152 400,208 376,208 376,224 416,224 416,200 446,240 416,280 416,256 376,256 "
   id="polygon18" />
			<polygon
   points="120,208 96,208 96,152 30,240 96,328 96,272 120,272 120,256 80,256 80,280 50,240 80,200 80,224 120,224 "
   id="polygon20" />
			<rect
   x="384"
   y="368"
   width="16"
   height="16"
   id="rect22" />
			<rect
   x="352"
   y="368"
   width="16"
   height="16"
   id="rect24" />
			<rect
   x="320"
   y="368"
   width="16"
   height="16"
   id="rect26" />
			<rect
   x="160"
   y="96"
   width="16"
   height="16"
   id="rect28" />
			<rect
   x="128"
   y="96"
   width="16"
   height="16"
   id="rect30" />
			<rect
   x="96"
   y="96"
   width="16"
   height="16"
   id="rect32" />
		</g>
	</g>
</g>
<g
   id="g40">
</g>
<g
   id="g42">
</g>
<g
   id="g44">
</g>
<g
   id="g46">
</g>
<g
   id="g48">
</g>
<g
   id="g50">
</g>
<g
   id="g52">
</g>
<g
   id="g54">
</g>
<g
   id="g56">
</g>
<g
   id="g58">
</g>
<g
   id="g60">
</g>
<g
   id="g62">
</g>
<g
   id="g64">
</g>
<g
   id="g66">
</g>
<g
   id="g68">
</g>
</svg>
