<?xml version="1.0" encoding="UTF-8" standalone="no"?>
<svg
   xmlns:dc="http://purl.org/dc/elements/1.1/"
   xmlns:cc="http://creativecommons.org/ns#"
   xmlns:rdf="http://www.w3.org/1999/02/22-rdf-syntax-ns#"
   xmlns:svg="http://www.w3.org/2000/svg"
   xmlns="http://www.w3.org/2000/svg"
   xmlns:sodipodi="http://sodipodi.sourceforge.net/DTD/sodipodi-0.dtd"
   xmlns:inkscape="http://www.inkscape.org/namespaces/inkscape"
   height="512pt"
   viewBox="0 0 512 512"
   width="512pt"
   version="1.1"
   id="svg12"
   sodipodi:docname="white-house.svg"
   inkscape:version="1.0.2-2 (e86c870879, 2021-01-15)">
  <metadata
     id="metadata18">
    <rdf:RDF>
      <cc:Work
         rdf:about="">
        <dc:format>image/svg+xml</dc:format>
        <dc:type
           rdf:resource="http://purl.org/dc/dcmitype/StillImage" />
        <dc:title></dc:title>
      </cc:Work>
    </rdf:RDF>
  </metadata>
  <defs
     id="defs16" />
  <sodipodi:namedview
     pagecolor="#ffffff"
     bordercolor="#666666"
     borderopacity="1"
     objecttolerance="10"
     gridtolerance="10"
     guidetolerance="10"
     inkscape:pageopacity="0"
     inkscape:pageshadow="2"
     inkscape:window-width="1366"
     inkscape:window-height="705"
     id="namedview14"
     showgrid="false"
     showguides="true"
     inkscape:guide-bbox="true"
     inkscape:zoom="0.55726091"
     inkscape:cx="286.1689"
     inkscape:cy="331.99486"
     inkscape:window-x="-8"
     inkscape:window-y="-8"
     inkscape:window-maximized="1"
     inkscape:current-layer="svg12">
    <sodipodi:guide
       position="38.249999,552.37604"
       orientation="-1,0"
       id="guide843"
       inkscape:label=""
       inkscape:locked="false"
       inkscape:color="rgb(0,0,255)" />
    <sodipodi:guide
       position="-39.03019,473.74999"
       orientation="0,1"
       id="guide845"
       inkscape:label=""
       inkscape:locked="false"
       inkscape:color="rgb(0,0,255)" />
  </sodipodi:namedview>
  <g
     id="g852"
     transform="matrix(0.85058596,0,0,0.85058596,38.227232,38.249995)">
    <path
       d="m 275.85547,181.01953 h -14.98828 v -14.98828 h 14.98828 z m -24.98047,0 H 235.88672 V 166.03125 H 250.875 Z m 0,0"
       id="path2" />
    <path
       d="M 255.87109,93.890625 100.48828,223.89844 H 411.25 Z m 0,19.542965 114.10547,95.47266 H 141.75781 Z m 0,0"
       id="path4" />
    <path
       d="M 486.28516,464.17187 V 430.58984 L 475.73437,430.57422 471.46094,396.5 H 460.73828 V 288.55859 h 10.72266 l 4.23437,-33.75781 h 20.64453 L 263.36328,59.867188 v -8.410157 h 52.80469 V 0 h -67.78906 c 0,61.203125 -0.004,59.46875 -0.004,59.867188 L 15.394531,254.80078 h 20.65625 l 4.230469,33.75781 H 51.003906 V 396.5 H 40.28125 l -4.191406,34.07422 -10.609375,-0.64453 v 33.58203 L 0.0703125,463.47266 0,512 h 511.625 l 0.0703,-47.79297 z M 40.496094,445.25 H 471.29687 v 18.92187 H 40.46875 Z M 120.26562,396.5 H 109.54297 V 288.55859 h 10.72265 L 124.5,254.80078 h 26.99219 l 4.23437,33.75781 h 10.72266 V 396.5 h -10.72266 l -4.21484,34.07422 H 124.47656 Z M 342.79297,273.57031 h -53.53125 l -2.35547,-18.76953 h 58.23828 z m 2.35156,157.00391 h -58.23828 l 2.35156,-19.08594 h 53.53125 z M 330.30469,396.5 h -28.5586 V 288.55859 h 28.5586 z M 276.03125,288.55859 h 10.72656 V 396.5 h -10.72656 l -4.23438,34.07422 H 239.94141 L 235.71094,396.5 H 224.98828 V 288.55859 h 10.72266 l 4.23437,-33.75781 h 31.85547 z m -109.41406,142.01563 2.33593,-19.08594 h 53.53125 l 2.34766,19.08594 z m 14.82422,-142.01563 h 28.55468 V 396.5 h -28.55468 z m 41.04296,-14.98828 h -53.53125 l -2.35156,-18.76953 h 58.23438 z M 360.26953,430.57422 356.01953,396.5 H 345.29297 V 288.55859 h 10.72656 L 360.25,254.80078 h 26.99609 l 4.23438,33.75781 h 10.72266 V 396.5 h -10.72266 l -4.25781,34.07422 z m 100.32031,0 h -58.23828 l 2.35157,-19.08594 h 53.53125 z M 445.75,396.5 H 417.19141 V 288.55859 H 445.75 Z m 12.48437,-122.92969 h -53.53125 l -2.35156,-18.76953 h 58.23828 z M 263.36719,14.988281 h 37.80859 V 36.46875 H 263.36719 Z M 255.87109,73.140625 455.07031,239.8125 H 56.667969 Z M 109.39453,254.80078 107.03906,273.57031 H 53.511719 L 51.15625,254.80078 Z M 65.996094,288.55859 H 94.554688 V 396.5 H 65.996094 Z M 53.511719,411.48828 h 53.527341 l 2.32813,19.08594 H 51.191406 Z M 496.65625,497.03906 H 15.011719 l 0.02344,-18.55468 H 496.68359 Z m 0,0"
       id="path6" />
    <path
       d="m 442.20703,195.58203 h 14.98828 V 81.664062 H 322.50781 V 96.65625 h 119.69922 z m 0,0"
       id="path8" />
    <path
       d="M 69.539062,96.65625 H 189.23047 V 81.664062 H 54.550781 V 195.57422 h 14.988281 z m 0,0"
       id="path10" />
  </g>
</svg>
